<svg width="464.461" height="158.313" viewBox="0 0 464.461 158.312" fill="none" xmlns="http://www.w3.org/2000/svg"><path d="M219.375 33.328 215.297 36q1.922 2.39 4.219 5.86l1.593-1.032q.797 2.953 1.079 5.766 3.562 0 5.859-.14 2.702-.253 4.084-1.735 1.447-1.553 1.447-4.453v-6.938h4.406v-5.156h-4.406v-3.14h4.594v-5.25H221.25q.281-1.407.609-2.907h13.594v-5.063h-12.797q.188-1.406.375-2.859H237v-5.25h-13.453q.141-1.594.281-3.328L217.594 0q-.094 1.922-.235 3.703h-8.109v5.25h7.688q-.188 1.5-.376 2.86H210v5.062h5.719q-.328 1.547-.657 2.906h-6.796v5.25h5.156q-2.438 6.422-6.516 11.532-.047-1.22-.094-2.297-2.015 1.312-4.078 2.53v-7.312h4.828v-5.297h-4.828v-4.312h3.985v-5.297h-8.485q.844-1.64 1.547-3.422h8.391v-5.25h-6.422q.75-2.203 1.406-4.593l-5.765-1.22q-1.829 8.626-5.485 14.86.844 2.953 1.688 7.5.89-1.219 1.734-2.578h1.453v4.313h-4.734v5.296h4.734v8.157q.035 1.861-.717 3.317-.27.524-.642.995l3.281 4.64q.985-1.171 3.047-2.437 3.188-2.203 5.344-3.562 1.687 1.547 2.718 2.578 1.922-2.274 3.563-4.734 1.641-2.461 3-5.11h3Zm111.094-3.14V24.28H302.25l1.383-3.468h30.726v-6.094h-28.312l1.383-3.469h24.023V5.156h-21.586l1.992-4.968h-7.312l-1.969 4.968h-11.25v6.094h8.836l-1.359 3.469h-10.289v6.094h7.875l-1.688 4.312v4.969h25.875l-7.922 6.07-15.281-5.555-3.141 5.203 27.704 11.344 3.796-5.953-6.304-2.46q5.531-4.102 11.039-8.556ZM149.766 8.483h-5.25v6.094h5.25v8.274l-5.719 1.054.656 6.703 5.063-1.289v8.414q0 1.266-.446 1.782-.445.515-1.711.515-1.312 0-3.14-.14 1.125 4.03 1.593 6.375 6.704 0 8.227-1.535 1.523-1.536 1.523-4.606V27.844l4.032-.985q-.047-2.109.187-6.14l-4.219.914v-7.055h3.985V8.484h-3.985V.234h-6.046v8.25Zm28.359 4.079h11.437V6.936h-11.437V.234h-6.75v6.704h-10.313v5.625h10.313v5.203h-10.406v5.859h20.015q-2.156 4.5-6.422 8.156-3.126-2.57-5.506-5.708-.831-1.096-1.572-2.26l-5.296 3.14q3.21 4.735 7.148 8.508-4.852 2.86-11.414 5.039 2.156 3.469 3.703 6.094 7.477-2.813 13.078-6.68 5.485 3.938 12.094 6.398 1.5-2.343 3.797-6.328-5.86-1.757-10.547-4.43 3.87-3.721 6.421-8.195 1.079-1.893 1.923-3.922v-5.671h-10.266v-5.203Zm89.484 2.53h-14.297v5.25h32.438v-5.25h-11.906v-3.75h10.172v-5.25h-10.172V.282h-6.235v5.813h-4.593q.562-1.594 1.125-3.328l-5.485-1.735q-1.968 6.657-4.453 11.485 2.953 1.359 5.25 2.484.797-1.688 1.594-3.656h6.562v3.75ZM129.234 28.899 114 30.281l.797 5.907 14.437-1.313v11.531h6.61V34.29l6.89-.633-.515-5.953-6.375.586V.33h-6.61v28.57ZM27.891 11.344h-7.032v7.875H10.312l1.735-10.172q16.219-.328 30.047-1.922L39.704.891Q23.015 2.953 5.624 3.28L2.203 25.406H20.86v11.11q0 1.23-.61 1.923-.785.89-2.577.89-2.625 0-5.953-.376.797 2.86 1.594 6.984 5.343-.023 8.273-.222 2.1-.143 3.562-1.183.577-.41 1.055-.962 1.688-1.945 1.688-5.695V25.406h16.5V19.22h-16.5v-7.875Zm225.421-1.781Q250.5 5.53 246.984.937l-5.015 3.094q3.047 4.36 5.859 9.235l5.484-3.704ZM101.092 23.86q-2.1 4.15-5.139 7.826 1.36 4.407 2.156 7.5 2.766-3.984 4.969-8.624v15.843h6.094V26.18q1.711 1.851 4.031 4.57l3.938-3.563q-2.344-2.437-5.719-5.437l-2.25 2.11v-4.032h6.094v-6.047h-6.094V7.898q3.68-.421 6.844-.867l-1.782-5.484q-8.203 1.172-17.906 1.922.61 2.39 1.078 5.578l5.672-.516v5.25h-6.703v6.047h6.492q-.783 2.07-1.775 4.033Zm278.877-10.736V1.875h-40.36v20.813q-.047 7.335-.914 11.261-.736 3.332-2.164 6.334-.254.536-.531 1.06 1.875 2.298 4.219 5.579 5.578-7.664 5.578-24.328v-9.469h34.172ZM92.438 2.062H50.156v44.063h6.282V7.922h29.718v29.11q0 1.171-.48 1.874-.302.442-.72.685-.247.143-.534.218-.774.199-2.649.199-2.437 0-5.367-.305.75 2.766 1.453 6.516 4.547 0 7.747-.059 2.38-.043 3.996-1.178.555-.39 1.02-.908 1.816-2.027 1.816-6.105V2.062Zm311.859 16.782h-19.781V25.5h19.781v9.281q0 1.946-.973 2.918-.972.973-2.918.973-3.984 0-8.015-.422 1.031 3.61 1.687 7.125 6.234-.023 9.879-.105 2.734-.062 4.492-1.403.586-.447 1.063-1.035 1.91-2.355 1.91-7.066V25.5h18.703v-6.656h-18.703V9.562h15.375V2.907h-38.813v6.656h16.313v9.282Zm-275.438-8.625q-4.359-3.938-7.921-6.563L117 7.641q3.984 3.14 7.5 6.89l4.359-4.312ZM373.922 6.75v1.969h-28.125V6.75h28.125ZM58.734 17.063H83.86v-5.344H58.734v5.344Zm315 24.75q-.937-4.454-1.312-6.047l-3.61.609.188 1.219-2.484.164V35.25h8.625v5.531q0 1.228-.608 1.757-.46.4-1.267.4-1.969 0-4.454-.094.516 1.593.985 3.703 5.461 0 7.219-.082.936-.044 1.662-.456.638-.362 1.115-1.009 1.019-1.383 1.019-4.078v-9.797h-14.296v-1.64h12.234v-9.141h-12.234v-1.969q8.367-.164 13.218-.375l-1.125-3.75q-13.359.656-31.781.563l1.125 3.843 12.891-.187v1.875h-12.282v9.14h12.282v1.641h-14.203v15.469h5.671V35.25h8.532v2.79l-7.406.304.703 4.64 15.492-1.617q.117.586.211 1.149l3.89-.703ZM127.359 22.172q-3.89-3.563-8.015-6.61l-3.985 4.079q4.407 3.422 7.594 6.797l4.406-4.266Zm157.172 23.25 1.875-6.047q-8.367.281-23.859.281-7.323 0-10.984-3.66-.136-.137-.266-.277V17.53h-10.5v5.953h4.359v11.907l-4.828 4.125 2.813 6.984q2.25-2.39 5.437-5.578 1.058.962 2.25 1.71 3.746 2.353 8.813 2.602 6.679.328 24.89.188ZM82.078 20.719h-21.75v19.406h6.094v-3h15.656V20.719Zm200.86 1.875h-26.016V36.75h26.016V22.594Zm77.906 3.375h-6.656v-2.063h6.656v2.063Zm5.672-2.063h6.656v2.063h-6.656v-2.063Zm-138.938 4.266h-8.859q.609-1.547 1.125-3.14h7.734v3.14ZM75.984 25.969v5.906h-9.562v-5.906h9.562Zm-59.812 3.75-6.047-3.188Q5.719 33.984 0 39.938q2.438 1.734 5.25 4.359 5.906-6.375 10.922-14.578ZM46.453 39.75q-5.86-8.438-9.89-13.078l-5.204 3.469q3.891 5.015 8.953 13.687 2.954-2.062 6.141-4.078Zm216.609-12h13.735v3.844h-13.735V27.75Zm-41.859 13.031 3.422-2.297q-1.547-2.062-4.125-5.156h7.078v5.11q0 1.334-.666 1.967-.668.634-2.006.564-1.547-.047-3.703-.188Zm-28.078 31.625H214.5v-4.969h-6.984v-3.046h8.859v-5.063h-8.859V56h-6.188v3.328h-9.14v5.063h9.14v3.046h-8.203v4.97Zm-83.063-16.36h-6.421q-2.719 5.72-8.157 10.313 1.97 2.063 3.75 4.313.563-.469 1.125-.984v4.03h16.079v2.813h-15.516l-2.25 12.938h11.062q-5.179 4.148-13.78 6.937 2.155 3.375 3.515 5.672 10.969-4.5 16.969-11.273v11.554h6.421v-12.89H135q-.188 2.508-.375 3.363-.046.209-.133.399-.269.588-.933.996-.879.539-2.473.539-.164 0-6.398-.282.984 3 1.593 5.766 9.797.094 11.157-.832 1.359-.926 2.519-2.309 1.16-1.382 1.418-12.703h-18.516v-2.812h16.313v-12.89h-5.039l2.836-2.345q-1.336-1.336-2.836-2.625h7.945v-4.453H129.68q.703-1.57 1.336-3.234h-6.469q-.609 1.483-1.368 2.885-1.316 2.43-3.085 4.615V59.28h-11.649q.844-1.57 1.617-3.234Zm127.688 12V62.61h-13.172q.68-2.601 1.36-5.484l-5.766-1.031Q218.062 66.64 214.641 74q2.297.984 5.25 2.531 1.547-3.422 3.047-8.156h8.953l-1.735 7.547 5.532 1.172 2.062-9.047Zm22.664-7.077h-18.305v5.203h11.368l-3.68 1.687q1.148 1.454 2.062 2.72h-11.625v5.202H286.5v-5.203h-11.578l2.156-2.672-3.633-1.734h11.274v-5.203h-17.203q-.938-2.532-1.875-4.828l-6.61 1.125q.774 1.968 1.383 3.703ZM63.656 57.453l-6.984-1.078q-.54 2.86-1.899 7.453h-4.945v38.11h6.516v-3.657H63v3.375h6.516V73.742q3.304 1.43 5.53 2.883 1.735-3.094 3.282-6.375h8.156q0 2.79-.093 7.266l-.211 9.586q-.118 5.109-.305 5.765-.03.104-.068.204-.203.536-.647.98-.527.527-1.347.785t-1.946.258q-3.914 0-7.383-.281 1.079 2.953 1.782 7.078 7.757 0 10.066-.399 2.309-.398 3.598-1.5.244-.208.464-.44.94-.992 1.434-2.408.61-1.746.727-6.105l.539-26.977H81q1.172-2.976 2.203-6.093l-6.469-1.688q-3.445 10.36-7.218 16.688v-9.14h-7.97l2.11-6.376Zm-48.14.938-6.188-2.016Q5.718 68.375 0 77.75l1.969 9.047q1.828-2.719 3.468-5.531v20.718h6.282v-33.21q2.133-5.063 3.797-10.383Zm30 9.234v-5.438H25.898q.844-2.273 1.665-4.734l-6.657-.89q-3.047 9.89-7.64 16.78 3.046 2.298 4.921 3.938 2.836-3.984 5.297-9.328h15.47l-1.782 6.656 6.187 1.22 2.157-8.204Zm270.375-.281h-7.032v7.875h-10.547l1.735-10.172q16.219-.328 30.047-1.922l-2.391-6.234q-16.687 2.062-34.078 2.39l-3.422 22.125h18.656v11.11q0 1.23-.61 1.923-.785.89-2.577.89-2.625 0-5.953-.376.797 2.86 1.593 6.985 5.344-.024 8.274-.223 2.1-.143 3.562-1.183.577-.411 1.055-.962 1.688-1.945 1.688-5.695V81.406h16.5V75.22h-16.5v-7.875Zm-206.368-3.61-1.945 1.5q1.945 1.875 3.469 3.47h-9.68q2.321-2.274 4.242-4.97h3.914Zm6.633 2.953q-1.617-1.546-3.258-2.953H120q-.68.868-1.406 1.688 2.648 1.71 4.781 3.281h-9.703l2.484-2.016Zm16.196 2.016h-8.672q1.992-2.297 3.632-4.969h3.024l-1.664 1.407q2.086 1.875 3.68 3.562Zm135 1.875h-7.782q-1.476-2.11-3.398-4.406h14.344q-1.43 2.203-3.164 4.406Zm-211.008-.61H63v8.016h-6.656V69.97ZM33.656 95.517V70.812h-6.515v22.829q0 1.248-.605 1.716l-.04.03q-.644.457-2.426.457-1.57 0-3.867-.188.797 3.281 1.172 6.047 4.71.047 7.348-.187 2.527-.225 3.687-1.602.05-.06.098-.121 1.148-1.488 1.148-4.277Zm194.86-22.97h-5.672q0 8.93-2.297 14.556-2.297 5.625-8.297 10.43 2.062 2.53 4.125 5.343 7.266-6.61 9.422-14.04 1.74 5.479 5.141 9.578 1.866 2.251 4.234 4.087 2.203-4.172 3.562-6.281-1.658-.988-3.064-2.257-5.962-5.382-7.365-15.814.164-2.53.211-5.601Zm-95.672 1.173v2.812h-9.985V73.72h9.985Zm60.797 6h20.765V74.75h-20.765v4.969Zm-3.657-3.938h-45.281v6.938h45.281V75.78Zm-105.843 9.89q-3.891-5.765-7.266-9.796l-5.438 3.75q3.235 4.125 6.797 9.984l5.907-3.937ZM19.078 76.72q-2.672 8.765-5.906 15.562 3.234 1.313 5.906 2.625 3.469-7.734 6-16.594l-6-1.593Zm27.469 16.453q-3.375-10.875-5.39-15.984l-5.766 1.546q2.297 6.938 4.734 16.5l6.422-2.062Zm199.125-14.578v23.812h6.375v-2.297h22.547v2.297h6.375V78.594h-35.297Zm-129.234 5.812H105.75l.516-2.812h10.172v2.812Zm83.765 4.969-5.391-1.5q-1.359 5.813-3 9.89l5.204 1.852q.328 1.242.656 2.742 5.648 0 7.242-.398.958-.24 1.649-.805.459-.375.8-.894.856-1.301.856-3.48v-9.61h8.343v-5.063h-24.374v5.063h9.937v7.64q0 .616-.274 1.063-.102.166-.242.309-.515.527-3.515.386 1.078-3.375 2.109-7.195Zm103.969-3.656-6.047-3.188Q293.719 89.984 288 95.937q2.438 1.735 5.25 4.36 5.906-6.375 10.922-14.578Zm30.281 10.031q-5.859-8.438-9.891-13.078l-5.203 3.469q3.891 5.015 8.953 13.687 2.954-2.062 6.141-4.078Zm-82.406-12.094h22.547v3.328h-22.547v-3.328ZM63 92.141h-6.656v-8.016H63v8.016Zm153.656.421q-1.828-2.437-4.265-5.109l-4.079 3.047q2.391 2.86 4.126 5.344l4.218-3.281Zm57.938 2.579h-22.547v-3.375h22.547v3.375Z" fill="#FFFFFFFF"/><path d="m383.977 111.953-5.954 2.156q2.157 4.266 4.641 10.032l6.516-2.344q-2.578-5.485-5.203-9.844Zm48.328 9.75h-11.578v12.235h40.968v-12.235H450.07v-2.906h13.125v-4.875h-44.109v4.875h13.219v2.906ZM412.512 155.5q1.699-2.016 1.699-6.141v-34.125h-23.813v6.282h17.016v25.968q0 1.734-.858 2.722-1.138 1.31-3.783 1.31-4.312 0-8.25-.235 1.079 3.61 1.735 6.938 8.32 0 11.437-.352 2.501-.282 4.09-1.635.391-.334.727-.732Zm-113.028-3.352h7.922v-36.304h-7.336v20.695q0 3.703.235 5.016h-.117q-.329-.61-1.805-2.883l-14.813-22.828h-8.437v36.304h7.336V131.5q0-3.914-.211-5.789h.117q.539 1.125 1.734 2.953l15.375 23.484Zm24.094-29.976h12.961v-6.328h-20.695v36.304h7.734v-14.32h11.93V131.5h-11.93v-9.328Zm34.36 0h10.359v-6.328h-28.453v6.328h10.336v29.976h7.758v-29.976Zm20.695-3.422h-6.797v39.141h6.797V118.75Zm65.344 2.953h-5.579v-2.906h5.579v2.906Zm-11.672 7.735h-5.532v-3.235h5.532v3.235Zm11.672 0h-5.579v-3.235h5.579v3.235Zm11.671-3.235v3.235h-5.578v-3.235h5.578Zm5.485 9.985h-39.938v4.64h39.938v-4.64Zm3.328 6.984h-46.594v5.016h11.93q-8.016 3.585-12.117 4.781 1.64 2.25 3.328 5.156l12.89-5.906-3-4.031h7.829v3q0 1.212-.594 1.695-.393.32-1.047.32-2.109 0-4.734-.141.609 2.157 1.218 5.25 4.289 0 6.727-.14 2.437-.141 3.598-1.383 1.16-1.242 1.16-3.586v-5.015h19.406v-5.016Zm-.469 9.844q-7.359-2.672-13.265-4.688l-2.625 4.406q7.5 2.813 13.125 5.204l2.765-4.922Z" fill="url(#a)"/><defs><linearGradient id="a" x1="234.714" y1="-42.031" x2="101.144" y2="192.26" gradientUnits="userSpaceOnUse"><stop stop-color="#FDAE8F"/><stop offset="1" stop-color="#FD1C68"/></linearGradient></defs></svg>