<svg width="128.000000" height="56.000000" viewBox="0 0 128 56" fill="none" xmlns="http://www.w3.org/2000/svg" xmlns:xlink="http://www.w3.org/1999/xlink">
	<desc>
			Created with Pixso.
	</desc>
	<rect id="Time" rx="12.000000" width="128.000000" height="56.000000" fill="#3C485D"/>
	<g clip-path="url(#clip8_3238)">
		<g clip-path="url(#clip8_3231)">
			<path id="Vector" d="M28 36.25C23.4436 36.25 19.75 32.5562 19.75 28C19.75 23.4438 23.4436 19.75 28 19.75C32.5564 19.75 36.25 23.4438 36.25 28C36.25 32.5562 32.5564 36.25 28 36.25Z" stroke="#FFFFFF" stroke-width="2.000000"/>
			<path id="Vector" d="M28 28L31.7124 24.2876" stroke="#FFFFFF" stroke-width="2.000000" stroke-linejoin="round" stroke-linecap="round"/>
			<path id="Vector" d="M25.75 16.75L30.25 16.75" stroke="#FFFFFF" stroke-width="2.000000" stroke-linejoin="round" stroke-linecap="round"/>
		</g>
		<path id="Label" d="M71.1562 33.1094L71.1562 36.1328L73.25 36.1328L73.25 35.1797L76.8594 35.1797L76.8594 36.0703L78.9531 36.0703L78.9531 28.7109L71.1562 28.7109L71.1562 33.0156L69.3906 31.6172Q70.2969 29.5234 70.5625 26.0781L71.1562 27.5547Q72.8047 27.2578 77.4766 26.9297L78.0312 28.1484L79.9219 27.3516Q78.5781 24.6328 77.2344 22.4141L75.5469 23.1016Q76.1172 24.1406 76.6875 25.2891Q74.8203 25.4453 72.9844 25.5547Q74.5625 23.6016 76 21.2578L73.6875 20.6016Q72.0312 24.0703 70.5938 25.5938Q70.6562 24.6797 70.6719 23.6641L67.875 23.6641L68.3281 20.8516L66.25 20.6328Q66.0625 22.2344 65.8516 23.6641L64.2969 23.6641L64.2969 25.6016L65.5391 25.6016Q65.1016 28.0938 64.5625 30.0078Q65.6719 30.9297 66.7969 31.9609Q65.7656 33.3516 64.1719 34.3828Q64.875 35.1641 65.5938 36.1172Q67.2734 34.9531 68.3594 33.4375Q69 34.0625 69.6406 34.7266L71.1562 33.1094ZM100.766 20.6328L98.7188 21.3516Q99.3906 22.5078 100.094 23.9922L102.266 23.1641Q101.5 21.7891 100.766 20.6328ZM92.2188 23.3984L87.5938 23.3984L87.5938 25.4766L92.2188 25.4766L92.2188 32.5391Q92.2188 33.1567 91.9102 33.4531Q91.6255 33.7266 91.0781 33.7266Q90.8594 33.7266 88.6406 33.6641Q88.9219 34.5234 89.1719 35.9453Q91.2109 35.9453 92.2461 35.9062Q93.0029 35.8779 93.5195 35.5107Q93.7096 35.376 93.8672 35.1953Q94.4531 34.5234 94.4531 33.2109L94.4531 25.4766L95.7656 25.4766L95.7656 23.3984L94.4531 23.3984L94.4531 20.7734L92.2188 20.7734L92.2188 23.3984ZM110.762 34.9453Q111.141 34.2656 111.141 33.1328L111.141 21.3828L102.797 21.3828L102.797 23.3047L108.969 23.3047L108.969 33.0078Q108.969 33.4106 108.769 33.6372Q108.511 33.9297 107.922 33.9297Q106.375 33.9297 105.375 33.8672Q105.688 34.8984 105.875 36.0547Q108.727 36.0547 109.555 35.8398Q110.094 35.6997 110.443 35.3628Q110.63 35.1821 110.762 34.9453ZM51.9219 27.4453L48.2969 27.4453L48.2969 29.4766L51.8359 29.4766Q51.6875 31.6719 50.7305 32.75Q49.7734 33.8281 48.3281 34.6016Q49.4219 35.4297 50.2969 36.1953Q52.1641 35.1719 53.0742 33.7461Q53.9844 32.3203 54.1406 29.4766L58.3281 29.4766L58.3281 35.8828L60.5938 35.8828L60.5938 29.4766L63.7656 29.4766L63.7656 27.4453L60.5938 27.4453L60.5938 23.6172L63.1094 23.6172L63.1094 21.5859L49.1562 21.5859L49.1562 23.6172L51.9219 23.6172L51.9219 27.4453ZM80.9844 21.7578L80.9844 35.2422L83.0469 35.2422L83.0469 34.0703L85.0781 34.0703L85.0781 35.1484L87.1406 35.1484L87.1406 21.7578L80.9844 21.7578ZM99.0312 22.6953L96.8594 22.6953L96.8594 36.0078L99.0312 36.0078L99.0312 22.6953ZM58.3281 27.4453L54.1875 27.4453L54.1875 23.6172L58.3281 23.6172L58.3281 27.4453ZM83.0469 23.8203L85.0781 23.8203L85.0781 26.9141L83.0469 26.9141L83.0469 23.8203ZM107.453 24.5703L100.469 24.5703L100.469 33.6484L102.438 33.6484L102.438 32.7891L107.453 32.7891L107.453 24.5703ZM67.7578 30.3281L66.7188 29.5078Q67.1484 27.6484 67.5312 25.6016L68.6562 25.6016Q68.5234 28.3984 67.7578 30.3281ZM91.7812 30.1016Q90.0312 27.6484 88.9688 26.3203L87.3438 27.3984Q88.4688 28.9766 89.8906 31.3359L91.7812 30.1016ZM102.438 26.3203L105.484 26.3203L105.484 27.8047L102.438 27.8047L102.438 26.3203ZM85.0781 32.0078L83.0469 32.0078L83.0469 28.9141L85.0781 28.9141L85.0781 32.0078ZM105.484 29.5547L105.484 31.0391L102.438 31.0391L102.438 29.5547L105.484 29.5547ZM73.25 30.6797L76.8594 30.6797L76.8594 33.2109L73.25 33.2109L73.25 30.6797Z" fill="#FFFFFFFF"/>
	</g>
	<defs>
		<clipPath id="clip8_3231">
			<rect id="Left Icon" width="32.000000" height="24.000000" transform="translate(16.000000 16.000000)" fill="white"/>
		</clipPath>
		<clipPath id="clip8_3237">
			<rect id="Right Icon" width="32.000000" height="24.000000" transform="translate(111.000000 16.000000)" fill="white"/>
		</clipPath>
		<clipPath id="clip8_3238">
			<rect id="Time" rx="12.000000" width="128.000000" height="56.000000" fill="white"/>
		</clipPath>
	</defs>
</svg>
