<svg width="224.000000" height="72.000000" viewBox="0 0 224 72" fill="none" xmlns="http://www.w3.org/2000/svg" xmlns:xlink="http://www.w3.org/1999/xlink">
	<desc>
			Created with Pixso.
	</desc>
	<rect id="Base Button" rx="16.000000" width="224.000000" height="72.000000" fill="url(#paint_linear_8_3041_0)"/>
	<g clip-path="url(#clip8_3041)">
		<g clip-path="url(#clip8_3034)">
			<path id="Vector" d="M64.8181 41.3027C63.7574 44.4849 59.5148 44.4849 59.5148 44.4849C59.5148 44.4849 59.5148 40.2422 62.6968 39.1816" stroke="#FFFFFF" stroke-width="2.000000" stroke-linejoin="round" stroke-linecap="round"/>
			<path id="Vector" d="M68 40.2427L63.7573 36L70.1213 29.6362C72.531 27.2266 74.9408 27.25 75.9685 27.4033C76.1267 27.4268 76.2732 27.5005 76.3864 27.6138C76.4995 27.7271 76.5732 27.8735 76.5968 28.0317C76.7502 29.0596 76.7737 31.4692 74.3639 33.8789L68 40.2427Z" stroke="#FFFFFF" stroke-width="2.000000" stroke-linejoin="round"/>
			<path id="Vector" d="M73.3033 34.9395L73.3033 40.9927C73.3033 41.0913 73.2839 41.189 73.2462 41.2798C73.2085 41.3706 73.1533 41.4536 73.0836 41.5229L70.0516 44.5552C69.9556 44.6509 69.8353 44.7192 69.7037 44.7524C69.572 44.7852 69.4338 44.7817 69.304 44.7427C69.174 44.7031 69.0571 44.6294 68.9659 44.5288C68.8748 44.4282 68.8125 44.3052 68.7858 44.1719L68 40.2427" stroke="#FFFFFF" stroke-width="2.000000" stroke-linejoin="round" stroke-linecap="round"/>
			<path id="Vector" d="M69.0607 30.6963L63.0073 30.6963C62.9089 30.6963 62.8114 30.7158 62.7203 30.7534C62.6294 30.791 62.5468 30.8462 62.4771 30.916L59.4451 33.9482C59.349 34.0439 59.2809 34.1641 59.2479 34.2959C59.2148 34.4277 59.2181 34.5659 59.2576 34.6958C59.2969 34.8257 59.3707 34.9424 59.4712 35.0337C59.5718 35.125 59.6952 35.187 59.8282 35.2139L63.7573 35.9995" stroke="#FFFFFF" stroke-width="2.000000" stroke-linejoin="round" stroke-linecap="round"/>
		</g>
		<path id="Label" d="M116.945 42.8867L116.945 46.666L119.562 46.666L119.562 45.4746L124.074 45.4746L124.074 46.5879L126.691 46.5879L126.691 37.3887L116.945 37.3887L116.945 42.7695L114.738 41.0215Q115.871 38.4043 116.203 34.0977L116.945 35.9434Q119.006 35.5723 124.846 35.1621L125.539 36.6855L127.902 35.6895Q126.223 32.291 124.543 29.5176L122.434 30.377Q123.146 31.6758 123.859 33.1113Q121.525 33.3066 119.23 33.4434Q121.203 31.002 123 28.0723L120.109 27.252Q118.039 31.5879 116.242 33.4922Q116.32 32.3496 116.34 31.0801L112.844 31.0801L113.41 27.5645L110.812 27.291Q110.578 29.293 110.314 31.0801L108.371 31.0801L108.371 33.502L109.924 33.502Q109.377 36.6172 108.703 39.0098Q110.09 40.1621 111.496 41.4512Q110.207 43.1895 108.215 44.4785Q109.094 45.4551 109.992 46.6465Q112.092 45.1914 113.449 43.2969Q114.25 44.0781 115.051 44.9082L116.945 42.8867ZM139.699 41.1582L138 42.2715Q138.801 43.2676 139.758 44.7129L140.422 44.2832Q140.754 45.5137 140.871 46.6855Q142.355 46.6855 143.312 46.627Q144.438 46.522 145.014 45.9043Q145.617 45.2573 145.617 44.0488L145.617 41.1582L147.453 41.1582L147.453 39.0098L145.617 39.0098L145.617 37.7012L147.531 37.7012L147.531 35.5137L140.48 35.5137Q140.598 34.9277 140.734 34.3027L146.398 34.3027L146.398 32.1934L141.066 32.1934Q141.145 31.6074 141.223 31.002L147.043 31.002L147.043 28.8145L141.438 28.8145Q141.496 28.1504 141.555 27.4277L138.957 27.2715Q138.918 28.0723 138.859 28.8145L135.48 28.8145L135.48 31.002L138.684 31.002Q138.605 31.627 138.527 32.1934L135.793 32.1934L135.793 34.3027L138.176 34.3027Q138.039 34.9473 137.902 35.5137L135.07 35.5137L135.07 37.7012L137.219 37.7012Q136.203 40.377 134.504 42.5059Q134.484 41.998 134.465 41.5488Q133.625 42.0957 132.766 42.6035L132.766 39.5566L134.777 39.5566L134.777 37.3496L132.766 37.3496L132.766 35.5527L134.426 35.5527L134.426 33.3457L130.891 33.3457Q131.242 32.6621 131.535 31.9199L135.031 31.9199L135.031 29.7324L132.355 29.7324Q132.668 28.8145 132.941 27.8184L130.539 27.3105Q129.777 30.9043 128.254 33.502Q128.605 34.7324 128.957 36.627Q129.328 36.1191 129.68 35.5527L130.285 35.5527L130.285 37.3496L128.312 37.3496L128.312 39.5566L130.285 39.5566L130.285 42.9551Q130.3 43.7305 129.986 44.3374Q129.874 44.5557 129.719 44.752L131.086 46.6855Q131.496 46.1973 132.355 45.6699Q133.684 44.752 134.582 44.1855Q135.285 44.8301 135.715 45.2598Q136.516 44.3125 137.199 43.2871Q137.883 42.2617 138.449 41.1582L139.699 41.1582ZM159.797 33.5605L153.84 33.5605L153.84 35.748L167.355 35.748L167.355 33.5605L162.395 33.5605L162.395 31.998L166.633 31.998L166.633 29.8105L162.395 29.8105L162.395 27.3887L159.797 27.3887L159.797 29.8105L157.883 29.8105Q158.117 29.1465 158.352 28.4238L156.066 27.7012Q155.246 30.4746 154.211 32.4863Q155.441 33.0527 156.398 33.5215Q156.73 32.8184 157.062 31.998L159.797 31.998L159.797 33.5605ZM153.84 31.2559Q152.668 29.5762 151.203 27.6621L149.113 28.9512Q150.383 30.7676 151.555 32.7988L153.84 31.2559ZM92.9023 35.8066L88.3711 35.8066L88.3711 38.3457L92.7949 38.3457Q92.6094 41.0898 91.4131 42.4375Q90.2168 43.7852 88.4102 44.752Q89.7773 45.7871 90.8711 46.7441Q93.2051 45.4648 94.3428 43.6826Q95.4805 41.9004 95.6758 38.3457L100.91 38.3457L100.91 46.3535L103.742 46.3535L103.742 38.3457L107.707 38.3457L107.707 35.8066L103.742 35.8066L103.742 31.0215L106.887 31.0215L106.887 28.4824L89.4453 28.4824L89.4453 31.0215L92.9023 31.0215L92.9023 35.8066ZM100.91 35.8066L95.7344 35.8066L95.7344 31.0215L100.91 31.0215L100.91 35.8066ZM112.697 39.4102L111.398 38.3848Q111.936 36.0605 112.414 33.502L113.82 33.502Q113.654 36.998 112.697 39.4102ZM166.848 46.1973L167.629 43.6777Q164.143 43.7949 157.688 43.7949Q154.636 43.7949 153.111 42.2695Q153.054 42.2129 153 42.1543L153 34.5762L148.625 34.5762L148.625 37.0566L150.441 37.0566L150.441 42.0176L148.43 43.7363L149.602 46.6465Q150.539 45.6504 151.867 44.3223Q152.308 44.7231 152.805 45.0352Q154.365 46.0156 156.477 46.1191Q159.26 46.2559 166.848 46.1973ZM166.184 36.6855L155.344 36.6855L155.344 42.584L166.184 42.584L166.184 36.6855ZM143.117 39.0098L139.426 39.0098Q139.68 38.3652 139.895 37.7012L143.117 37.7012L143.117 39.0098ZM157.902 38.834L163.625 38.834L163.625 40.4355L157.902 40.4355L157.902 38.834ZM119.562 39.8496L124.074 39.8496L124.074 43.0137L119.562 43.0137L119.562 39.8496ZM140.461 44.2637L141.887 43.3066Q141.242 42.4473 140.168 41.1582L143.117 41.1582L143.117 43.2871Q143.117 43.8433 142.84 44.1069Q142.561 44.3711 142.004 44.3418Q141.359 44.3223 140.461 44.2637Z" fill="#FFFFFFFF"/>
	</g>
	<defs>
		<clipPath id="clip8_3034">
			<rect id="Left Icon" width="32.000000" height="24.000000" transform="translate(56.000000 24.000000)" fill="white"/>
		</clipPath>
		<clipPath id="clip8_3040">
			<rect id="Right Icon" width="32.000000" height="24.000000" transform="translate(147.000000 24.000000)" fill="white"/>
		</clipPath>
		<clipPath id="clip8_3041">
			<rect id="Base Button" rx="16.000000" width="224.000000" height="72.000000" fill="white"/>
		</clipPath>
		<linearGradient id="paint_linear_8_3041_0" x1="112.198868" y1="-15.076904" x2="48.539734" y2="85.333351" gradientUnits="userSpaceOnUse">
			<stop stop-color="#FDAE8F"/>
			<stop offset="1.000000" stop-color="#FD1C68"/>
		</linearGradient>
	</defs>
</svg>
