<svg width="464.460938" height="158.312500" viewBox="0 0 464.461 158.312" fill="none" xmlns="http://www.w3.org/2000/svg" xmlns:xlink="http://www.w3.org/1999/xlink">
	<desc>
			Created with Pixso.
	</desc>
	<path id="Discover, collect, and sell extraordinary NFTs" d="M219.375 33.3281L215.297 36Q217.219 38.3906 219.516 41.8594L221.109 40.8281Q221.906 43.7812 222.188 46.5938Q225.75 46.5938 228.047 46.4531Q230.749 46.2012 232.131 44.7188Q233.578 43.1665 233.578 40.2656L233.578 33.3281L237.984 33.3281L237.984 28.1719L233.578 28.1719L233.578 25.0312L238.172 25.0312L238.172 19.7812L221.25 19.7812Q221.531 18.375 221.859 16.875L235.453 16.875L235.453 11.8125L222.656 11.8125Q222.844 10.4062 223.031 8.95312L237 8.95312L237 3.70312L223.547 3.70312Q223.688 2.10938 223.828 0.375L217.594 0Q217.5 1.92188 217.359 3.70312L209.25 3.70312L209.25 8.95312L216.938 8.95312Q216.75 10.4531 216.562 11.8125L210 11.8125L210 16.875L215.719 16.875Q215.391 18.4219 215.062 19.7812L208.266 19.7812L208.266 25.0312L213.422 25.0312Q210.984 31.4531 206.906 36.5625Q206.859 35.3438 206.812 34.2656Q204.797 35.5781 202.734 36.7969L202.734 29.4844L207.562 29.4844L207.562 24.1875L202.734 24.1875L202.734 19.875L206.719 19.875L206.719 14.5781L198.234 14.5781Q199.078 12.9375 199.781 11.1562L208.172 11.1562L208.172 5.90625L201.75 5.90625Q202.5 3.70312 203.156 1.3125L197.391 0.09375Q195.562 8.71875 191.906 14.9531Q192.75 17.9062 193.594 22.4531Q194.484 21.2344 195.328 19.875L196.781 19.875L196.781 24.1875L192.047 24.1875L192.047 29.4844L196.781 29.4844L196.781 37.6406Q196.816 39.502 196.064 40.958Q195.794 41.4819 195.422 41.9531L198.703 46.5938Q199.688 45.4219 201.75 44.1562Q204.938 41.9531 207.094 40.5938Q208.781 42.1406 209.812 43.1719Q211.734 40.8984 213.375 38.4375Q215.016 35.9766 216.375 33.3281L219.375 33.3281ZM330.469 30.1875L330.469 24.2812L302.25 24.2812L303.633 20.8125L334.359 20.8125L334.359 14.7188L306.047 14.7188L307.43 11.25L331.453 11.25L331.453 5.15625L309.867 5.15625L311.859 0.1875L304.547 0.1875L302.578 5.15625L291.328 5.15625L291.328 11.25L300.164 11.25L298.805 14.7188L288.516 14.7188L288.516 20.8125L296.391 20.8125L294.703 25.125L294.703 30.0938L320.578 30.0938L312.656 36.1641L297.375 30.6094L294.234 35.8125L321.938 47.1562L325.734 41.2031L319.43 38.7422Q324.961 34.6406 330.469 30.1875ZM149.766 8.48438L144.516 8.48438L144.516 14.5781L149.766 14.5781L149.766 22.8516L144.047 23.9062L144.703 30.6094L149.766 29.3203L149.766 37.7344Q149.766 39 149.32 39.5156Q148.875 40.0312 147.609 40.0312Q146.297 40.0312 144.469 39.8906Q145.594 43.9219 146.062 46.2656Q152.766 46.2656 154.289 44.7305Q155.812 43.1953 155.812 40.125L155.812 27.8438L159.844 26.8594Q159.797 24.75 160.031 20.7188L155.812 21.6328L155.812 14.5781L159.797 14.5781L159.797 8.48438L155.812 8.48438L155.812 0.234375L149.766 0.234375L149.766 8.48438ZM178.125 12.5625L189.562 12.5625L189.562 6.9375L178.125 6.9375L178.125 0.234375L171.375 0.234375L171.375 6.9375L161.062 6.9375L161.062 12.5625L171.375 12.5625L171.375 17.7656L160.969 17.7656L160.969 23.625L180.984 23.625Q178.828 28.125 174.562 31.7812Q171.436 29.2104 169.056 26.0732Q168.225 24.9775 167.484 23.8125L162.188 26.9531Q165.398 31.6875 169.336 35.4609Q164.484 38.3203 157.922 40.5Q160.078 43.9688 161.625 46.5938Q169.102 43.7812 174.703 39.9141Q180.188 43.8516 186.797 46.3125Q188.297 43.9688 190.594 39.9844Q184.734 38.2266 180.047 35.5547Q183.917 31.833 186.468 27.3589Q187.547 25.4658 188.391 23.4375L188.391 17.7656L178.125 17.7656L178.125 12.5625ZM267.609 15.0938L253.312 15.0938L253.312 20.3438L285.75 20.3438L285.75 15.0938L273.844 15.0938L273.844 11.3438L284.016 11.3438L284.016 6.09375L273.844 6.09375L273.844 0.28125L267.609 0.28125L267.609 6.09375L263.016 6.09375Q263.578 4.5 264.141 2.76562L258.656 1.03125Q256.688 7.6875 254.203 12.5156Q257.156 13.875 259.453 15Q260.25 13.3125 261.047 11.3438L267.609 11.3438L267.609 15.0938ZM129.234 28.8984L114 30.2812L114.797 36.1875L129.234 34.875L129.234 46.4062L135.844 46.4062L135.844 34.2891L142.734 33.6562L142.219 27.7031L135.844 28.2891L135.844 0.328125L129.234 0.328125L129.234 28.8984ZM27.8906 11.3438L20.8594 11.3438L20.8594 19.2188L10.3125 19.2188L12.0469 9.04688Q28.2656 8.71875 42.0938 7.125L39.7031 0.890625Q23.0156 2.95312 5.625 3.28125L2.20312 25.4062L20.8594 25.4062L20.8594 36.5156Q20.8594 37.7466 20.2485 38.439Q19.4641 39.3281 17.6719 39.3281Q15.0469 39.3281 11.7188 38.9531Q12.5156 41.8125 13.3125 45.9375Q18.6562 45.9141 21.5859 45.7148Q23.6859 45.5723 25.1476 44.5322Q25.7252 44.1211 26.2031 43.5703Q27.8906 41.625 27.8906 37.875L27.8906 25.4062L44.3906 25.4062L44.3906 19.2188L27.8906 19.2188L27.8906 11.3438ZM253.312 9.5625Q250.5 5.53125 246.984 0.9375L241.969 4.03125Q245.016 8.39062 247.828 13.2656L253.312 9.5625ZM101.092 23.8608Q98.9923 28.0117 95.9531 31.6875Q97.3125 36.0938 98.1094 39.1875Q100.875 35.2031 103.078 30.5625L103.078 46.4062L109.172 46.4062L109.172 26.1797Q110.883 28.0312 113.203 30.75L117.141 27.1875Q114.797 24.75 111.422 21.75L109.172 23.8594L109.172 19.8281L115.266 19.8281L115.266 13.7812L109.172 13.7812L109.172 7.89844Q112.852 7.47656 116.016 7.03125L114.234 1.54688Q106.031 2.71875 96.3281 3.46875Q96.9375 5.85938 97.4062 9.04688L103.078 8.53125L103.078 13.7812L96.375 13.7812L96.375 19.8281L102.867 19.8281Q102.084 21.8975 101.092 23.8608ZM379.969 13.125L379.969 1.875L339.609 1.875L339.609 22.6875Q339.562 30.0234 338.695 33.9492Q337.959 37.2808 336.531 40.2832Q336.277 40.8188 336 41.3438Q337.875 43.6406 340.219 46.9219Q345.797 39.2578 345.797 22.5938L345.797 13.125L379.969 13.125ZM92.4375 2.0625L50.1562 2.0625L50.1562 46.125L56.4375 46.125L56.4375 7.92188L86.1562 7.92188L86.1562 37.0312Q86.1562 38.2031 85.6758 38.9062Q85.3738 39.3481 84.9561 39.5908Q84.7092 39.7344 84.4219 39.8086Q83.6484 40.0078 81.7734 40.0078Q79.3359 40.0078 76.4062 39.7031Q77.1562 42.4688 77.8594 46.2188Q82.4062 46.2188 85.6055 46.1602Q87.9869 46.1167 89.6021 44.9819Q90.1567 44.5923 90.6211 44.0742Q92.4375 42.0469 92.4375 37.9688L92.4375 2.0625ZM404.297 18.8438L384.516 18.8438L384.516 25.5L404.297 25.5L404.297 34.7812Q404.297 36.7266 403.324 37.6992Q402.352 38.6719 400.406 38.6719Q396.422 38.6719 392.391 38.25Q393.422 41.8594 394.078 45.375Q400.312 45.3516 403.957 45.2695Q406.691 45.208 408.449 43.8667Q409.035 43.4204 409.512 42.832Q411.422 40.4766 411.422 35.7656L411.422 25.5L430.125 25.5L430.125 18.8438L411.422 18.8438L411.422 9.5625L426.797 9.5625L426.797 2.90625L387.984 2.90625L387.984 9.5625L404.297 9.5625L404.297 18.8438ZM128.859 10.2188Q124.5 6.28125 120.938 3.65625L117 7.64062Q120.984 10.7812 124.5 14.5312L128.859 10.2188ZM373.922 6.75L373.922 8.71875L345.797 8.71875L345.797 6.75L373.922 6.75ZM58.7344 17.0625L83.8594 17.0625L83.8594 11.7188L58.7344 11.7188L58.7344 17.0625ZM373.734 41.8125Q372.797 37.3594 372.422 35.7656L368.812 36.375L369 37.5938L366.516 37.7578L366.516 35.25L375.141 35.25L375.141 40.7812Q375.141 42.0093 374.533 42.5376Q374.073 42.9375 373.266 42.9375Q371.297 42.9375 368.812 42.8438Q369.328 44.4375 369.797 46.5469Q375.258 46.5469 377.016 46.4648Q377.952 46.4214 378.678 46.0088Q379.316 45.6465 379.793 45Q380.812 43.6172 380.812 40.9219L380.812 31.125L366.516 31.125L366.516 29.4844L378.75 29.4844L378.75 20.3438L366.516 20.3438L366.516 18.375Q374.883 18.2109 379.734 18L378.609 14.25Q365.25 14.9062 346.828 14.8125L347.953 18.6562L360.844 18.4688L360.844 20.3438L348.562 20.3438L348.562 29.4844L360.844 29.4844L360.844 31.125L346.641 31.125L346.641 46.5938L352.312 46.5938L352.312 35.25L360.844 35.25L360.844 38.0391L353.438 38.3438L354.141 42.9844L369.633 41.3672Q369.75 41.9531 369.844 42.5156L373.734 41.8125ZM127.359 22.1719Q123.469 18.6094 119.344 15.5625L115.359 19.6406Q119.766 23.0625 122.953 26.4375L127.359 22.1719ZM284.531 45.4219L286.406 39.375Q278.039 39.6562 262.547 39.6562Q255.224 39.6562 251.563 35.9951Q251.427 35.8594 251.297 35.7188L251.297 17.5312L240.797 17.5312L240.797 23.4844L245.156 23.4844L245.156 35.3906L240.328 39.5156L243.141 46.5Q245.391 44.1094 248.578 40.9219Q249.636 41.8838 250.828 42.6328Q254.574 44.9854 259.641 45.2344Q266.32 45.5625 284.531 45.4219ZM82.0781 20.7188L60.3281 20.7188L60.3281 40.125L66.4219 40.125L66.4219 37.125L82.0781 37.125L82.0781 20.7188ZM282.938 22.5938L256.922 22.5938L256.922 36.75L282.938 36.75L282.938 22.5938ZM360.844 25.9688L354.188 25.9688L354.188 23.9062L360.844 23.9062L360.844 25.9688ZM366.516 23.9062L373.172 23.9062L373.172 25.9688L366.516 25.9688L366.516 23.9062ZM227.578 28.1719L218.719 28.1719Q219.328 26.625 219.844 25.0312L227.578 25.0312L227.578 28.1719ZM75.9844 25.9688L75.9844 31.875L66.4219 31.875L66.4219 25.9688L75.9844 25.9688ZM16.1719 29.7188L10.125 26.5312Q5.71875 33.9844 0 39.9375Q2.4375 41.6719 5.25 44.2969Q11.1562 37.9219 16.1719 29.7188ZM46.4531 39.75Q40.5938 31.3125 36.5625 26.6719L31.3594 30.1406Q35.25 35.1562 40.3125 43.8281Q43.2656 41.7656 46.4531 39.75ZM263.062 27.75L276.797 27.75L276.797 31.5938L263.062 31.5938L263.062 27.75ZM221.203 40.7812L224.625 38.4844Q223.078 36.4219 220.5 33.3281L227.578 33.3281L227.578 38.4375Q227.578 39.7715 226.912 40.4048Q226.244 41.0391 224.906 40.9688Q223.359 40.9219 221.203 40.7812ZM193.125 72.4062L214.5 72.4062L214.5 67.4375L207.516 67.4375L207.516 64.3906L216.375 64.3906L216.375 59.3281L207.516 59.3281L207.516 56L201.328 56L201.328 59.3281L192.188 59.3281L192.188 64.3906L201.328 64.3906L201.328 67.4375L193.125 67.4375L193.125 72.4062ZM110.062 56.0469L103.641 56.0469Q100.922 61.7656 95.4844 66.3594Q97.4531 68.4219 99.2344 70.6719Q99.7969 70.2031 100.359 69.6875L100.359 73.7188L116.438 73.7188L116.438 76.5312L100.922 76.5312L98.6719 89.4688L109.734 89.4688Q104.555 93.6172 95.9531 96.4062Q98.1094 99.7812 99.4688 102.078Q110.438 97.5781 116.438 90.8047L116.438 102.359L122.859 102.359L122.859 89.4688L135 89.4688Q134.812 91.9766 134.625 92.832Q134.579 93.0405 134.492 93.2305Q134.223 93.8188 133.559 94.2266Q132.68 94.7656 131.086 94.7656Q130.922 94.7656 124.688 94.4844Q125.672 97.4844 126.281 100.25Q136.078 100.344 137.438 99.418Q138.797 98.4922 139.957 97.1094Q141.117 95.7266 141.375 84.4062L122.859 84.4062L122.859 81.5938L139.172 81.5938L139.172 68.7031L134.133 68.7031L136.969 66.3594Q135.633 65.0234 134.133 63.7344L142.078 63.7344L142.078 59.2812L129.68 59.2812Q130.383 57.7109 131.016 56.0469L124.547 56.0469Q123.938 57.5298 123.179 58.9316Q121.863 61.3618 120.094 63.5469L120.094 59.2812L108.445 59.2812Q109.289 57.7109 110.062 56.0469ZM237.75 68.0469L237.75 62.6094L224.578 62.6094Q225.258 60.0078 225.938 57.125L220.172 56.0938Q218.062 66.6406 214.641 74Q216.938 74.9844 219.891 76.5312Q221.438 73.1094 222.938 68.375L231.891 68.375L230.156 75.9219L235.688 77.0938L237.75 68.0469ZM260.414 60.9688L242.109 60.9688L242.109 66.1719L253.477 66.1719L249.797 67.8594Q250.945 69.3125 251.859 70.5781L240.234 70.5781L240.234 75.7812L286.5 75.7812L286.5 70.5781L274.922 70.5781L277.078 67.9062L273.445 66.1719L284.719 66.1719L284.719 60.9688L267.516 60.9688Q266.578 58.4375 265.641 56.1406L259.031 57.2656Q259.805 59.2344 260.414 60.9688ZM63.6562 57.4531L56.6719 56.375Q56.1328 59.2344 54.7734 63.8281L49.8281 63.8281L49.8281 101.938L56.3438 101.938L56.3438 98.2812L63 98.2812L63 101.656L69.5156 101.656L69.5156 73.7422Q72.8203 75.1719 75.0469 76.625Q76.7812 73.5312 78.3281 70.25L86.4844 70.25Q86.4844 73.0391 86.3906 77.5156L86.1797 87.1016Q86.0625 92.2109 85.875 92.8672Q85.8453 92.9707 85.8073 93.0713Q85.6041 93.6069 85.1602 94.0508Q84.6328 94.5781 83.8125 94.8359Q82.9922 95.0938 81.8672 95.0938Q77.9531 95.0938 74.4844 94.8125Q75.5625 97.7656 76.2656 101.891Q84.0234 101.891 86.332 101.492Q88.6406 101.094 89.9297 99.9922Q90.1738 99.7837 90.3936 99.5518Q91.3341 98.5601 91.8281 97.1445Q92.4375 95.3984 92.5547 91.0391L93.0938 64.0625L81 64.0625Q82.1719 61.0859 83.2031 57.9688L76.7344 56.2812Q73.2891 66.6406 69.5156 72.9688L69.5156 63.8281L61.5469 63.8281L63.6562 57.4531ZM15.5156 58.3906L9.32812 56.375Q5.71875 68.375 0 77.75L1.96875 86.7969Q3.79688 84.0781 5.4375 81.2656L5.4375 101.984L11.7188 101.984L11.7188 68.7734Q13.8516 63.7109 15.5156 58.3906ZM45.5156 67.625L45.5156 62.1875L25.8984 62.1875Q26.7422 59.9141 27.5625 57.4531L20.9062 56.5625Q17.8594 66.4531 13.2656 73.3438Q16.3125 75.6406 18.1875 77.2812Q21.0234 73.2969 23.4844 67.9531L38.9531 67.9531L37.1719 74.6094L43.3594 75.8281L45.5156 67.625ZM315.891 67.3438L308.859 67.3438L308.859 75.2188L298.312 75.2188L300.047 65.0469Q316.266 64.7188 330.094 63.125L327.703 56.8906Q311.016 58.9531 293.625 59.2812L290.203 81.4062L308.859 81.4062L308.859 92.5156Q308.859 93.7466 308.249 94.439Q307.464 95.3281 305.672 95.3281Q303.047 95.3281 299.719 94.9531Q300.516 97.8125 301.312 101.938Q306.656 101.914 309.586 101.715Q311.686 101.572 313.148 100.532Q313.725 100.121 314.203 99.5703Q315.891 97.625 315.891 93.875L315.891 81.4062L332.391 81.4062L332.391 75.2188L315.891 75.2188L315.891 67.3438ZM109.523 63.7344L107.578 65.2344Q109.523 67.1094 111.047 68.7031L101.367 68.7031Q103.688 66.4297 105.609 63.7344L109.523 63.7344ZM116.156 66.6875Q114.539 65.1406 112.898 63.7344L120 63.7344Q119.32 64.6016 118.594 65.4219Q121.242 67.1328 123.375 68.7031L113.672 68.7031L116.156 66.6875ZM132.352 68.7031L123.68 68.7031Q125.672 66.4062 127.312 63.7344L130.336 63.7344L128.672 65.1406Q130.758 67.0156 132.352 68.7031ZM267.352 70.5781L259.57 70.5781Q258.094 68.4688 256.172 66.1719L270.516 66.1719Q269.086 68.375 267.352 70.5781ZM56.3438 69.9688L63 69.9688L63 77.9844L56.3438 77.9844L56.3438 69.9688ZM33.6562 95.5156L33.6562 70.8125L27.1406 70.8125L27.1406 93.6406Q27.1406 94.8887 26.5364 95.3569Q26.5166 95.3721 26.4961 95.3867Q25.8516 95.8438 24.0703 95.8438Q22.5 95.8438 20.2031 95.6562Q21 98.9375 21.375 101.703Q26.0859 101.75 28.7227 101.516Q31.2501 101.291 32.41 99.9141Q32.4602 99.8545 32.5078 99.793Q33.6562 98.3047 33.6562 95.5156ZM228.516 72.5469L222.844 72.5469Q222.844 81.4766 220.547 87.1016Q218.25 92.7266 212.25 97.5312Q214.312 100.062 216.375 102.875Q223.641 96.2656 225.797 88.8359Q227.537 94.3135 230.938 98.4131Q232.804 100.664 235.172 102.5Q237.375 98.3281 238.734 96.2188Q237.076 95.2305 235.67 93.9619Q229.708 88.5801 228.305 78.1484Q228.469 75.6172 228.516 72.5469ZM132.844 73.7188L132.844 76.5312L122.859 76.5312L122.859 73.7188L132.844 73.7188ZM193.641 79.7188L214.406 79.7188L214.406 74.75L193.641 74.75L193.641 79.7188ZM189.984 75.7812L144.703 75.7812L144.703 82.7188L189.984 82.7188L189.984 75.7812ZM84.1406 85.6719Q80.25 79.9062 76.875 75.875L71.4375 79.625Q74.6719 83.75 78.2344 89.6094L84.1406 85.6719ZM19.0781 76.7188Q16.4062 85.4844 13.1719 92.2812Q16.4062 93.5938 19.0781 94.9062Q22.5469 87.1719 25.0781 78.3125L19.0781 76.7188ZM46.5469 93.1719Q43.1719 82.2969 41.1562 77.1875L35.3906 78.7344Q37.6875 85.6719 40.125 95.2344L46.5469 93.1719ZM245.672 78.5938L245.672 102.406L252.047 102.406L252.047 100.109L274.594 100.109L274.594 102.406L280.969 102.406L280.969 78.5938L245.672 78.5938ZM116.438 84.4062L105.75 84.4062L106.266 81.5938L116.438 81.5938L116.438 84.4062ZM200.203 89.375L194.812 87.875Q193.453 93.6875 191.812 97.7656L197.016 99.6172Q197.344 100.859 197.672 102.359Q203.32 102.359 204.914 101.961Q205.872 101.721 206.563 101.156Q207.022 100.781 207.363 100.262Q208.219 98.9609 208.219 96.7812L208.219 87.1719L216.562 87.1719L216.562 82.1094L192.188 82.1094L192.188 87.1719L202.125 87.1719L202.125 94.8125Q202.125 95.4277 201.851 95.875Q201.749 96.041 201.609 96.1836Q201.094 96.7109 198.094 96.5703Q199.172 93.1953 200.203 89.375ZM304.172 85.7188L298.125 82.5312Q293.719 89.9844 288 95.9375Q290.438 97.6719 293.25 100.297Q299.156 93.9219 304.172 85.7188ZM334.453 95.75Q328.594 87.3125 324.562 82.6719L319.359 86.1406Q323.25 91.1562 328.312 99.8281Q331.266 97.7656 334.453 95.75ZM252.047 83.6562L274.594 83.6562L274.594 86.9844L252.047 86.9844L252.047 83.6562ZM63 92.1406L56.3438 92.1406L56.3438 84.125L63 84.125L63 92.1406ZM216.656 92.5625Q214.828 90.125 212.391 87.4531L208.312 90.5Q210.703 93.3594 212.438 95.8438L216.656 92.5625ZM274.594 95.1406L252.047 95.1406L252.047 91.7656L274.594 91.7656L274.594 95.1406Z" fill="#FFFFFFFF"/>
	<path id="Discover, collect, and sell extraordinary NFTs" d="M383.977 111.953L378.023 114.109Q380.18 118.375 382.664 124.141L389.18 121.797Q386.602 116.312 383.977 111.953ZM432.305 121.703L420.727 121.703L420.727 133.938L461.695 133.938L461.695 121.703L450.07 121.703L450.07 118.797L463.195 118.797L463.195 113.922L419.086 113.922L419.086 118.797L432.305 118.797L432.305 121.703ZM412.512 155.5Q414.211 153.484 414.211 149.359L414.211 115.234L390.398 115.234L390.398 121.516L407.414 121.516L407.414 147.484Q407.414 149.218 406.556 150.206Q405.418 151.516 402.773 151.516Q398.461 151.516 394.523 151.281Q395.602 154.891 396.258 158.219Q404.578 158.219 407.695 157.867Q410.196 157.585 411.785 156.232Q412.176 155.898 412.512 155.5ZM299.484 152.148L307.406 152.148L307.406 115.844L300.07 115.844L300.07 136.539Q300.07 140.242 300.305 141.555L300.188 141.555Q299.859 140.945 298.383 138.672L283.57 115.844L275.133 115.844L275.133 152.148L282.469 152.148L282.469 131.5Q282.469 127.586 282.258 125.711L282.375 125.711Q282.914 126.836 284.109 128.664L299.484 152.148ZM323.578 122.172L336.539 122.172L336.539 115.844L315.844 115.844L315.844 152.148L323.578 152.148L323.578 137.828L335.508 137.828L335.508 131.5L323.578 131.5L323.578 122.172ZM357.938 122.172L368.297 122.172L368.297 115.844L339.844 115.844L339.844 122.172L350.18 122.172L350.18 152.148L357.938 152.148L357.938 122.172ZM378.633 118.75L371.836 118.75L371.836 157.891L378.633 157.891L378.633 118.75ZM443.977 121.703L438.398 121.703L438.398 118.797L443.977 118.797L443.977 121.703ZM432.305 129.438L426.773 129.438L426.773 126.203L432.305 126.203L432.305 129.438ZM443.977 129.438L438.398 129.438L438.398 126.203L443.977 126.203L443.977 129.438ZM455.648 126.203L455.648 129.438L450.07 129.438L450.07 126.203L455.648 126.203ZM461.133 136.188L421.195 136.188L421.195 140.828L461.133 140.828L461.133 136.188ZM464.461 143.172L417.867 143.172L417.867 148.188L429.797 148.188Q421.781 151.773 417.68 152.969Q419.32 155.219 421.008 158.125L433.898 152.219L430.898 148.188L438.727 148.188L438.727 151.188Q438.727 152.4 438.133 152.883Q437.74 153.203 437.086 153.203Q434.977 153.203 432.352 153.062Q432.961 155.219 433.57 158.312Q437.859 158.312 440.297 158.172Q442.734 158.031 443.895 156.789Q445.055 155.547 445.055 153.203L445.055 148.188L464.461 148.188L464.461 143.172ZM463.992 153.016Q456.633 150.344 450.727 148.328L448.102 152.734Q455.602 155.547 461.227 157.938L463.992 153.016Z" fill="url(#paint_linear_760_13260_0)"/>
	<defs>
		<linearGradient id="paint_linear_760_13260_0" x1="234.714203" y1="-42.031006" x2="101.143677" y2="192.259552" gradientUnits="userSpaceOnUse">
			<stop stop-color="#FDAE8F"/>
			<stop offset="1.000000" stop-color="#FD1C68"/>
		</linearGradient>
	</defs>
</svg>
