<?xml version="1.0" encoding="UTF-8" standalone="no"?>
<!DOCTYPE svg PUBLIC "-//W3C//DTD SVG 1.1//EN" "http://www.w3.org/Graphics/SVG/1.1/DTD/svg11.dtd">
<svg width="100%" height="100%" viewBox="0 0 465 159" version="1.1" xmlns="http://www.w3.org/2000/svg" xmlns:xlink="http://www.w3.org/1999/xlink" xml:space="preserve" xmlns:serif="http://www.serif.com/" style="fill-rule:evenodd;clip-rule:evenodd;stroke-linejoin:round;stroke-miterlimit:2;">
    <path id="Discover--collect--and-sell-extraordinary-NFTs" serif:id="Discover, collect, and sell extraordinary NFTs" d="M219.375,33.328L215.297,36C216.578,37.594 217.985,39.547 219.516,41.859L221.109,40.828C221.64,42.797 222,44.719 222.188,46.594C224.563,46.594 226.516,46.547 228.047,46.453C229.848,46.285 231.21,45.707 232.131,44.719C233.096,43.684 233.578,42.2 233.578,40.266L233.578,33.328L237.984,33.328L237.984,28.172L233.578,28.172L233.578,25.031L238.172,25.031L238.172,19.781L221.25,19.781C221.437,18.844 221.64,17.875 221.859,16.875L235.453,16.875L235.453,11.813L222.656,11.813C222.781,10.875 222.906,9.922 223.031,8.953L237,8.953L237,3.703L223.547,3.703C223.641,2.641 223.735,1.531 223.828,0.375L217.594,0C217.531,1.281 217.453,2.516 217.359,3.703L209.25,3.703L209.25,8.953L216.938,8.953C216.813,9.953 216.687,10.906 216.562,11.813L210,11.813L210,16.875L215.719,16.875C215.5,17.906 215.281,18.875 215.062,19.781L208.266,19.781L208.266,25.031L213.422,25.031C211.797,29.312 209.625,33.156 206.906,36.563C206.875,35.75 206.843,34.984 206.812,34.266C205.469,35.141 204.109,35.984 202.734,36.797L202.734,29.484L207.562,29.484L207.562,24.188L202.734,24.188L202.734,19.875L206.719,19.875L206.719,14.578L198.234,14.578C198.797,13.484 199.312,12.344 199.781,11.156L208.172,11.156L208.172,5.906L201.75,5.906C202.25,4.437 202.719,2.906 203.156,1.313L197.391,0.094C196.172,5.844 194.343,10.797 191.906,14.953C192.469,16.922 193.031,19.422 193.594,22.453C194.187,21.641 194.765,20.781 195.328,19.875L196.781,19.875L196.781,24.188L192.047,24.188L192.047,29.484L196.781,29.484L196.781,37.641C196.804,38.882 196.565,39.987 196.064,40.958C195.884,41.307 195.67,41.639 195.422,41.953L198.703,46.594C199.36,45.813 200.375,45 201.75,44.156C203.875,42.687 205.657,41.5 207.094,40.594C208.219,41.625 209.125,42.484 209.812,43.172C211.093,41.656 212.281,40.078 213.375,38.438C214.469,36.797 215.469,35.094 216.375,33.328L219.375,33.328ZM330.469,30.188L330.469,24.281L302.25,24.281L303.633,20.813L334.359,20.813L334.359,14.719L306.047,14.719L307.43,11.25L331.453,11.25L331.453,5.156L309.867,5.156L311.859,0.188L304.547,0.188L302.578,5.156L291.328,5.156L291.328,11.25L300.164,11.25L298.805,14.719L288.516,14.719L288.516,20.813L296.391,20.813L294.703,25.125L294.703,30.094L320.578,30.094L312.656,36.164L297.375,30.609L294.234,35.813L321.938,47.156L325.734,41.203L319.43,38.742C323.117,36.008 326.797,33.156 330.469,30.188ZM149.766,8.484L144.516,8.484L144.516,14.578L149.766,14.578L149.766,22.852L144.047,23.906L144.703,30.609L149.766,29.32L149.766,37.734C149.766,38.578 149.617,39.172 149.32,39.516C149.023,39.859 148.453,40.031 147.609,40.031C146.734,40.031 145.688,39.984 144.469,39.891C145.219,42.578 145.75,44.703 146.062,46.266C150.531,46.266 153.274,45.754 154.289,44.731C155.304,43.707 155.812,42.172 155.812,40.125L155.812,27.844L159.844,26.859C159.813,25.453 159.875,23.406 160.031,20.719L155.812,21.633L155.812,14.578L159.797,14.578L159.797,8.484L155.812,8.484L155.812,0.234L149.766,0.234L149.766,8.484ZM178.125,12.563L189.562,12.563L189.562,6.938L178.125,6.938L178.125,0.234L171.375,0.234L171.375,6.938L161.062,6.938L161.062,12.563L171.375,12.563L171.375,17.766L160.969,17.766L160.969,23.625L180.984,23.625C179.547,26.625 177.406,29.344 174.562,31.781C172.478,30.067 170.643,28.165 169.056,26.073C168.502,25.343 167.978,24.589 167.484,23.813L162.188,26.953C164.328,30.109 166.711,32.945 169.336,35.461C166.101,37.367 162.297,39.047 157.922,40.5C159.359,42.813 160.594,44.844 161.625,46.594C166.61,44.719 170.969,42.492 174.703,39.914C178.36,42.539 182.391,44.672 186.797,46.313C187.797,44.75 189.063,42.641 190.594,39.984C186.687,38.813 183.172,37.336 180.047,35.555C182.627,33.074 184.767,30.342 186.468,27.359C187.187,26.097 187.828,24.79 188.391,23.438L188.391,17.766L178.125,17.766L178.125,12.563ZM267.609,15.094L253.312,15.094L253.312,20.344L285.75,20.344L285.75,15.094L273.844,15.094L273.844,11.344L284.016,11.344L284.016,6.094L273.844,6.094L273.844,0.281L267.609,0.281L267.609,6.094L263.016,6.094C263.391,5.031 263.766,3.922 264.141,2.766L258.656,1.031C257.344,5.469 255.86,9.297 254.203,12.516C256.172,13.422 257.922,14.25 259.453,15C259.984,13.875 260.516,12.656 261.047,11.344L267.609,11.344L267.609,15.094ZM129.234,28.898L114,30.281L114.797,36.188L129.234,34.875L129.234,46.406L135.844,46.406L135.844,34.289L142.734,33.656L142.219,27.703L135.844,28.289L135.844,0.328L129.234,0.328L129.234,28.898ZM27.891,11.344L20.859,11.344L20.859,19.219L10.313,19.219L12.047,9.047C22.859,8.828 32.875,8.188 42.094,7.125L39.703,0.891C28.578,2.266 17.219,3.062 5.625,3.281L2.203,25.406L20.859,25.406L20.859,36.516C20.859,37.336 20.656,37.977 20.249,38.439C19.726,39.032 18.867,39.328 17.672,39.328C15.922,39.328 13.938,39.203 11.719,38.953C12.25,40.859 12.781,43.188 13.313,45.938C16.875,45.922 19.633,45.848 21.586,45.715C22.986,45.62 24.173,45.226 25.148,44.532C25.533,44.258 25.885,43.938 26.203,43.57C27.328,42.273 27.891,40.375 27.891,37.875L27.891,25.406L44.391,25.406L44.391,19.219L27.891,19.219L27.891,11.344ZM253.312,9.563C251.437,6.875 249.328,4 246.984,0.938L241.969,4.031C244,6.937 245.953,10.016 247.828,13.266L253.312,9.563ZM101.092,23.861C99.692,26.628 97.979,29.237 95.953,31.688C96.859,34.625 97.578,37.125 98.109,39.188C99.953,36.531 101.609,33.656 103.078,30.563L103.078,46.406L109.172,46.406L109.172,26.18C110.313,27.414 111.656,28.937 113.203,30.75L117.141,27.188C115.578,25.563 113.672,23.75 111.422,21.75L109.172,23.859L109.172,19.828L115.266,19.828L115.266,13.781L109.172,13.781L109.172,7.898C111.625,7.617 113.907,7.328 116.016,7.031L114.234,1.547C108.765,2.328 102.797,2.969 96.328,3.469C96.734,5.063 97.094,6.922 97.406,9.047L103.078,8.531L103.078,13.781L96.375,13.781L96.375,19.828L102.867,19.828C102.345,21.208 101.753,22.552 101.092,23.861ZM379.969,13.125L379.969,1.875L339.609,1.875L339.609,22.688C339.578,27.578 339.273,31.332 338.695,33.949C338.204,36.17 337.483,38.282 336.531,40.283C336.362,40.64 336.185,40.994 336,41.344C337.25,42.875 338.656,44.734 340.219,46.922C343.938,41.813 345.797,33.703 345.797,22.594L345.797,13.125L379.969,13.125ZM92.438,2.063L50.156,2.063L50.156,46.125L56.438,46.125L56.438,7.922L86.156,7.922L86.156,37.031C86.156,37.812 85.996,38.437 85.676,38.906C85.474,39.201 85.235,39.429 84.956,39.591C84.792,39.687 84.613,39.759 84.422,39.809C83.906,39.941 83.023,40.008 81.773,40.008C80.148,40.008 78.359,39.906 76.406,39.703C76.906,41.547 77.391,43.719 77.859,46.219C80.891,46.219 83.473,46.199 85.606,46.16C87.193,46.131 88.525,45.738 89.602,44.982C89.972,44.722 90.312,44.42 90.621,44.074C91.832,42.723 92.438,40.688 92.438,37.969L92.438,2.063ZM404.297,18.844L384.516,18.844L384.516,25.5L404.297,25.5L404.297,34.781C404.297,36.078 403.973,37.051 403.324,37.699C402.676,38.348 401.703,38.672 400.406,38.672C397.75,38.672 395.078,38.531 392.391,38.25C393.078,40.656 393.641,43.031 394.078,45.375C398.234,45.359 401.527,45.324 403.957,45.27C405.78,45.228 407.277,44.761 408.449,43.867C408.84,43.569 409.194,43.224 409.512,42.832C410.785,41.262 411.422,38.906 411.422,35.766L411.422,25.5L430.125,25.5L430.125,18.844L411.422,18.844L411.422,9.563L426.797,9.563L426.797,2.906L387.984,2.906L387.984,9.563L404.297,9.563L404.297,18.844ZM128.859,10.219C125.953,7.594 123.313,5.406 120.938,3.656L117,7.641C119.656,9.734 122.156,12.031 124.5,14.531L128.859,10.219ZM373.922,6.75L373.922,8.719L345.797,8.719L345.797,6.75L373.922,6.75ZM58.734,17.063L83.859,17.063L83.859,11.719L58.734,11.719L58.734,17.063ZM373.734,41.813C373.109,38.844 372.672,36.828 372.422,35.766L368.812,36.375L369,37.594L366.516,37.758L366.516,35.25L375.141,35.25L375.141,40.781C375.141,41.6 374.938,42.185 374.533,42.538C374.226,42.804 373.804,42.938 373.266,42.938C371.953,42.938 370.469,42.906 368.812,42.844C369.156,43.906 369.484,45.141 369.797,46.547C373.438,46.547 375.844,46.52 377.016,46.465C377.64,46.436 378.194,46.284 378.678,46.009C379.103,45.767 379.475,45.431 379.793,45C380.472,44.078 380.812,42.719 380.812,40.922L380.812,31.125L366.516,31.125L366.516,29.484L378.75,29.484L378.75,20.344L366.516,20.344L366.516,18.375C372.094,18.266 376.5,18.141 379.734,18L378.609,14.25C369.703,14.687 359.109,14.875 346.828,14.813L347.953,18.656L360.844,18.469L360.844,20.344L348.562,20.344L348.562,29.484L360.844,29.484L360.844,31.125L346.641,31.125L346.641,46.594L352.312,46.594L352.312,35.25L360.844,35.25L360.844,38.039L353.438,38.344L354.141,42.984L369.633,41.367C369.711,41.758 369.781,42.141 369.844,42.516L373.734,41.813ZM127.359,22.172C124.766,19.797 122.094,17.594 119.344,15.563L115.359,19.641C118.297,21.922 120.828,24.188 122.953,26.438L127.359,22.172ZM284.531,45.422L286.406,39.375C280.828,39.562 272.875,39.656 262.547,39.656C257.665,39.656 254.004,38.436 251.563,35.995C251.472,35.905 251.384,35.813 251.297,35.719L251.297,17.531L240.797,17.531L240.797,23.484L245.156,23.484L245.156,35.391L240.328,39.516L243.141,46.5C244.641,44.906 246.453,43.047 248.578,40.922C249.283,41.563 250.033,42.133 250.828,42.633C253.325,44.201 256.263,45.068 259.641,45.234C264.094,45.453 272.39,45.516 284.531,45.422ZM82.078,20.719L60.328,20.719L60.328,40.125L66.422,40.125L66.422,37.125L82.078,37.125L82.078,20.719ZM282.938,22.594L256.922,22.594L256.922,36.75L282.938,36.75L282.938,22.594ZM360.844,25.969L354.188,25.969L354.188,23.906L360.844,23.906L360.844,25.969ZM366.516,23.906L373.172,23.906L373.172,25.969L366.516,25.969L366.516,23.906ZM227.578,28.172L218.719,28.172C219.125,27.141 219.5,26.094 219.844,25.031L227.578,25.031L227.578,28.172ZM75.984,25.969L75.984,31.875L66.422,31.875L66.422,25.969L75.984,25.969ZM16.172,29.719L10.125,26.531C7.188,31.5 3.813,35.969 0,39.938C1.625,41.094 3.375,42.547 5.25,44.297C9.187,40.047 12.828,35.188 16.172,29.719ZM46.453,39.75C42.547,34.125 39.25,29.766 36.563,26.672L31.359,30.141C33.953,33.484 36.938,38.047 40.313,43.828C42.281,42.453 44.328,41.094 46.453,39.75ZM263.062,27.75L276.797,27.75L276.797,31.594L263.062,31.594L263.062,27.75ZM221.203,40.781L224.625,38.484C223.594,37.109 222.219,35.391 220.5,33.328L227.578,33.328L227.578,38.438C227.578,39.327 227.356,39.983 226.912,40.405C226.467,40.828 225.798,41.016 224.906,40.969C223.875,40.938 222.64,40.875 221.203,40.781ZM193.125,72.406L214.5,72.406L214.5,67.438L207.516,67.438L207.516,64.391L216.375,64.391L216.375,59.328L207.516,59.328L207.516,56L201.328,56L201.328,59.328L192.188,59.328L192.188,64.391L201.328,64.391L201.328,67.438L193.125,67.438L193.125,72.406ZM110.062,56.047L103.641,56.047C101.828,59.859 99.109,63.297 95.484,66.359C96.797,67.734 98.047,69.172 99.234,70.672C99.609,70.359 99.984,70.031 100.359,69.688L100.359,73.719L116.438,73.719L116.438,76.531L100.922,76.531L98.672,89.469L109.734,89.469C106.281,92.234 101.688,94.547 95.953,96.406C97.391,98.656 98.563,100.547 99.469,102.078C106.782,99.078 112.438,95.32 116.438,90.805L116.438,102.359L122.859,102.359L122.859,89.469L135,89.469C134.875,91.141 134.75,92.262 134.625,92.832C134.594,92.971 134.55,93.104 134.492,93.231C134.313,93.623 134.002,93.955 133.559,94.227C132.973,94.586 132.149,94.766 131.086,94.766C130.977,94.766 128.844,94.672 124.688,94.484C125.344,96.484 125.875,98.406 126.281,100.25C132.812,100.313 136.531,100.035 137.438,99.418C138.344,98.801 139.184,98.031 139.957,97.109C140.73,96.188 141.203,91.953 141.375,84.406L122.859,84.406L122.859,81.594L139.172,81.594L139.172,68.703L134.133,68.703L136.969,66.359C136.078,65.469 135.133,64.594 134.133,63.734L142.078,63.734L142.078,59.281L129.68,59.281C130.149,58.234 130.594,57.156 131.016,56.047L124.547,56.047C124.141,57.036 123.685,57.997 123.179,58.932C122.302,60.552 121.273,62.09 120.094,63.547L120.094,59.281L108.445,59.281C109.008,58.234 109.547,57.156 110.062,56.047ZM237.75,68.047L237.75,62.609L224.578,62.609C225.031,60.875 225.485,59.047 225.938,57.125L220.172,56.094C218.765,63.125 216.922,69.094 214.641,74C216.172,74.656 217.922,75.5 219.891,76.531C220.922,74.25 221.938,71.531 222.938,68.375L231.891,68.375L230.156,75.922L235.688,77.094L237.75,68.047ZM260.414,60.969L242.109,60.969L242.109,66.172L253.477,66.172L249.797,67.859C250.562,68.828 251.25,69.734 251.859,70.578L240.234,70.578L240.234,75.781L286.5,75.781L286.5,70.578L274.922,70.578L277.078,67.906L273.445,66.172L284.719,66.172L284.719,60.969L267.516,60.969C266.891,59.281 266.266,57.672 265.641,56.141L259.031,57.266C259.547,58.578 260.008,59.813 260.414,60.969ZM63.656,57.453L56.672,56.375C56.313,58.281 55.68,60.766 54.773,63.828L49.828,63.828L49.828,101.938L56.344,101.938L56.344,98.281L63,98.281L63,101.656L69.516,101.656L69.516,73.742C71.719,74.695 73.563,75.656 75.047,76.625C76.203,74.562 77.297,72.437 78.328,70.25L86.484,70.25C86.484,72.109 86.453,74.531 86.391,77.516L86.18,87.102C86.102,90.508 86,92.43 85.875,92.867C85.855,92.936 85.833,93.004 85.807,93.071C85.672,93.428 85.456,93.755 85.16,94.051C84.809,94.402 84.359,94.664 83.813,94.836C83.266,95.008 82.617,95.094 81.867,95.094C79.258,95.094 76.797,95 74.484,94.813C75.203,96.781 75.797,99.141 76.266,101.891C81.437,101.891 84.793,101.758 86.332,101.492C87.871,101.227 89.07,100.727 89.93,99.992C90.092,99.853 90.247,99.706 90.394,99.552C91.021,98.891 91.499,98.088 91.828,97.144C92.234,95.98 92.477,93.945 92.555,91.039L93.094,64.063L81,64.063C81.781,62.078 82.516,60.047 83.203,57.969L76.734,56.281C74.438,63.187 72.031,68.75 69.516,72.969L69.516,63.828L61.547,63.828L63.656,57.453ZM15.516,58.391L9.328,56.375C6.922,64.375 3.813,71.5 0,77.75L1.969,86.797C3.188,84.984 4.344,83.141 5.438,81.266L5.438,101.984L11.719,101.984L11.719,68.773C13.141,65.398 14.406,61.937 15.516,58.391ZM45.516,67.625L45.516,62.188L25.898,62.188C26.461,60.672 27.016,59.094 27.563,57.453L20.906,56.563C18.875,63.156 16.328,68.75 13.266,73.344C15.297,74.875 16.938,76.187 18.188,77.281C20.078,74.625 21.844,71.516 23.484,67.953L38.953,67.953L37.172,74.609L43.359,75.828L45.516,67.625ZM315.891,67.344L308.859,67.344L308.859,75.219L298.312,75.219L300.047,65.047C310.86,64.828 320.875,64.188 330.094,63.125L327.703,56.891C316.578,58.266 305.219,59.062 293.625,59.281L290.203,81.406L308.859,81.406L308.859,92.516C308.859,93.336 308.656,93.977 308.249,94.439C307.726,95.032 306.867,95.328 305.672,95.328C303.922,95.328 301.938,95.203 299.719,94.953C300.25,96.859 300.781,99.188 301.312,101.938C304.875,101.922 307.633,101.848 309.586,101.715C310.986,101.62 312.173,101.225 313.148,100.532C313.533,100.258 313.884,99.937 314.203,99.57C315.328,98.273 315.891,96.375 315.891,93.875L315.891,81.406L332.391,81.406L332.391,75.219L315.891,75.219L315.891,67.344ZM109.523,63.734L107.578,65.234C108.875,66.484 110.031,67.641 111.047,68.703L101.367,68.703C102.914,67.188 104.328,65.531 105.609,63.734L109.523,63.734ZM116.156,66.688C115.078,65.656 113.992,64.672 112.898,63.734L120,63.734C119.547,64.313 119.078,64.875 118.594,65.422C120.359,66.563 121.953,67.656 123.375,68.703L113.672,68.703L116.156,66.688ZM132.352,68.703L123.68,68.703C125.008,67.172 126.219,65.516 127.312,63.734L130.336,63.734L128.672,65.141C130.063,66.391 131.289,67.578 132.352,68.703ZM267.352,70.578L259.57,70.578C258.586,69.172 257.453,67.703 256.172,66.172L270.516,66.172C269.563,67.641 268.508,69.109 267.352,70.578ZM56.344,69.969L63,69.969L63,77.984L56.344,77.984L56.344,69.969ZM33.656,95.516L33.656,70.813L27.141,70.813L27.141,93.641C27.141,94.473 26.939,95.045 26.536,95.357C26.523,95.367 26.51,95.377 26.496,95.387C26.066,95.691 25.258,95.844 24.07,95.844C23.023,95.844 21.734,95.781 20.203,95.656C20.734,97.844 21.125,99.859 21.375,101.703C24.516,101.734 26.965,101.672 28.723,101.516C30.408,101.366 31.637,100.832 32.41,99.914C32.443,99.874 32.476,99.834 32.508,99.793C33.273,98.801 33.656,97.375 33.656,95.516ZM228.516,72.547L222.844,72.547C222.844,78.5 222.078,83.352 220.547,87.102C219.016,90.852 216.25,94.328 212.25,97.531C213.625,99.218 215,101 216.375,102.875C221.219,98.469 224.36,93.789 225.797,88.836C226.957,92.488 228.671,95.68 230.938,98.413C232.182,99.914 233.593,101.276 235.172,102.5C236.641,99.719 237.828,97.625 238.734,96.219C237.629,95.56 236.607,94.808 235.67,93.962C231.695,90.374 229.24,85.103 228.305,78.148C228.414,76.461 228.485,74.594 228.516,72.547ZM132.844,73.719L132.844,76.531L122.859,76.531L122.859,73.719L132.844,73.719ZM193.641,79.719L214.406,79.719L214.406,74.75L193.641,74.75L193.641,79.719ZM189.984,75.781L144.703,75.781L144.703,82.719L189.984,82.719L189.984,75.781ZM84.141,85.672C81.547,81.828 79.125,78.562 76.875,75.875L71.438,79.625C73.594,82.375 75.859,85.703 78.234,89.609L84.141,85.672ZM19.078,76.719C17.297,82.563 15.328,87.75 13.172,92.281C15.328,93.156 17.297,94.031 19.078,94.906C21.391,89.75 23.391,84.219 25.078,78.313L19.078,76.719ZM46.547,93.172C44.297,85.922 42.5,80.594 41.156,77.188L35.391,78.734C36.922,83.359 38.5,88.859 40.125,95.234L46.547,93.172ZM245.672,78.594L245.672,102.406L252.047,102.406L252.047,100.109L274.594,100.109L274.594,102.406L280.969,102.406L280.969,78.594L245.672,78.594ZM116.438,84.406L105.75,84.406L106.266,81.594L116.438,81.594L116.438,84.406ZM200.203,89.375L194.812,87.875C193.906,91.75 192.906,95.047 191.812,97.766L197.016,99.617C197.235,100.445 197.453,101.359 197.672,102.359C201.437,102.359 203.851,102.226 204.914,101.961C205.553,101.801 206.102,101.533 206.563,101.156C206.869,100.906 207.136,100.608 207.363,100.262C207.934,99.395 208.219,98.234 208.219,96.781L208.219,87.172L216.562,87.172L216.562,82.109L192.188,82.109L192.188,87.172L202.125,87.172L202.125,94.813C202.125,95.223 202.034,95.577 201.851,95.875C201.783,95.986 201.702,96.089 201.609,96.184C201.266,96.535 200.094,96.664 198.094,96.57C198.813,94.32 199.516,91.922 200.203,89.375ZM304.172,85.719L298.125,82.531C295.188,87.5 291.813,91.969 288,95.938C289.625,97.094 291.375,98.547 293.25,100.297C297.187,96.047 300.828,91.188 304.172,85.719ZM334.453,95.75C330.547,90.125 327.25,85.766 324.562,82.672L319.359,86.141C321.953,89.484 324.937,94.047 328.312,99.828C330.281,98.453 332.328,97.094 334.453,95.75ZM252.047,83.656L274.594,83.656L274.594,86.984L252.047,86.984L252.047,83.656ZM63,92.141L56.344,92.141L56.344,84.125L63,84.125L63,92.141ZM216.656,92.563C215.437,90.938 214.016,89.234 212.391,87.453L208.312,90.5C209.906,92.406 211.281,94.188 212.438,95.844L216.656,92.563ZM274.594,95.141L252.047,95.141L252.047,91.766L274.594,91.766L274.594,95.141Z" style="fill:white;fill-rule:nonzero;"/>
    <g transform="matrix(9.7352,0,0,9.7352,-683.451,-1262.16)">
        <text x="96.361px" y="145.75px" style="font-family:'Arial-BoldMT', 'Arial', sans-serif;font-weight:700;font-size:5.584px;fill:url(#_Linear1);">N</text>
        <text x="100.394px" y="145.75px" style="font-family:'Arial-BoldMT', 'Arial', sans-serif;font-weight:700;font-size:5.584px;fill:rgb(253,142,134);">FT</text>
        <text x="108.768px" y="145.75px" style="font-family:'ArialMT', 'Arial', sans-serif;font-size:5.584px;fill:rgb(253,134,132);">&amp;</text>
        <text x="114.044px" y="145.75px" style="font-family:'TamilMN', 'Tamil MN';font-size:5.584px;fill:rgb(253,134,132);">X</text>
    </g>
    <defs>
        <linearGradient id="_Linear1" x1="0" y1="0" x2="1" y2="0" gradientUnits="userSpaceOnUse" gradientTransform="matrix(2e-06,0,0,6.23858,103.805,143.814)"><stop offset="0" style="stop-color:rgb(253,112,126);stop-opacity:1"/><stop offset="1" style="stop-color:rgb(253,142,134);stop-opacity:1"/></linearGradient>
    </defs>
</svg>
