<svg width="204.000000" height="72.000000" viewBox="0 0 204 72" fill="none" xmlns="http://www.w3.org/2000/svg" xmlns:xlink="http://www.w3.org/1999/xlink">
	<desc>
			Created with Pixso.
	</desc>
	<g clip-path="url(#clip8_3079)">
		<g clip-path="url(#clip8_3072)">
			<path id="Vector" d="M59.75 36L76.25 36" stroke="#FFFFFF" stroke-width="2.000000" stroke-linejoin="round" stroke-linecap="round"/>
			<path id="Vector" d="M67.02 27.77L67 27.75C67 27.1899 67.4399 26.75 68 26.75C68.5601 26.75 69 27.1899 69 27.75L68.98 27.77L67.02 27.77ZM68.98 44.23L69 44.25C69 44.8101 68.5601 45.25 68 45.25C67.4399 45.25 67 44.8101 67 44.25L67.02 44.23L68.98 44.23Z" fill-rule="nonzero" fill="#FFFFFF"/>
			<path id="Vector" d="M68 27.75L68 44.25" stroke="#FFFFFF" stroke-width="2.000000" stroke-linejoin="round" stroke-linecap="round"/>
		</g>
		<path id="Label" d="M141.281 37.7988L146.574 37.7988L146.574 35.3379L141.281 35.3379L141.281 32.9355L147.688 32.9355L147.688 30.416L138.957 30.416Q139.367 29.2441 139.738 27.9551L137.199 27.3496Q135.949 31.7441 133.723 35.084Q134.66 36.5488 135.227 37.623Q136.75 35.6211 137.951 32.9355L138.527 32.9355L138.527 46.6074L141.281 46.6074L141.281 42.6621L147.023 42.6621L147.023 40.2012L141.281 40.2012L141.281 37.7988ZM134.738 28.2285L132.121 27.4668Q130.676 32.4277 128.312 36.1582Q128.762 38.2871 128.977 39.791Q129.163 39.5332 129.346 39.272Q130.042 38.2783 130.676 37.2422L130.676 46.5879L133.332 46.5879L133.332 32.0371Q134.113 30.1914 134.738 28.2285ZM94.7188 28.1699L91.9844 27.5059Q90.5586 32.4473 88.2734 36.334Q88.5469 37.2715 89.1133 39.8691Q89.8555 38.834 90.5391 37.7305L90.5391 46.4707L93.1953 46.4707L93.1953 32.4668Q94.0449 30.416 94.7188 28.1699ZM115.695 28.0137L116.066 27.5449L112.805 27.5449Q111.535 30.1621 108.098 33.1113Q108.918 34.7324 109.25 35.5918Q109.543 35.3574 109.816 35.123L109.816 43.3652Q109.816 44.4414 110.344 45.085Q111.129 46.041 113.078 46.041L116.047 46.041Q117.848 46.041 118.591 45.1543Q118.912 44.772 119.035 44.2246Q119.27 43.3262 119.523 41.8027Q118.117 41.5488 116.789 41.2363Q116.672 42.4082 116.613 42.7988Q116.556 43.251 116.299 43.4805Q116.034 43.7168 115.559 43.7168L113.469 43.7168Q112.985 43.7256 112.715 43.4893Q112.375 43.1919 112.375 42.5059L112.375 36.5293L115.715 36.5293Q115.676 37.6035 115.617 38.1895Q115.605 38.6323 115.381 38.8184Q115.239 38.936 115.012 38.9512Q113.605 38.9316 113.059 38.873Q113.156 39.4004 113.352 41.2559Q114.172 41.2949 115.148 41.2559Q116.603 41.2559 117.346 40.5288Q118.078 39.811 118.117 38.3848Q118.254 35.1816 118.293 34.1855L110.852 34.1855Q113.098 32.1152 114.367 30.1426Q115.988 32.0176 117.453 34.1465L119.543 32.252Q117.57 29.9668 115.695 28.0137ZM126.73 27.6621L124.133 27.6621L124.133 42.252Q124.133 43.1733 123.692 43.4995Q123.451 43.6777 123.078 43.6777Q121.652 43.6777 120.832 43.6387Q121.242 45.084 121.398 46.4121Q122.785 46.4121 124.309 46.373Q125.054 46.3428 125.57 45.9834Q126.73 45.1753 126.73 42.7012L126.73 27.6621ZM106.516 28.7559L95.0312 28.7559L95.0312 31.334L103.391 31.334Q102.915 35.5635 100.763 38.6074Q100.749 38.6279 100.734 38.6484Q98.7715 35.9238 97.8438 32.0762L95.4609 33.1699Q96.6914 37.6816 98.8301 40.8066Q96.6523 42.8184 93.4492 44.1074Q94.6406 45.8066 95.207 46.6855Q98.459 45.2793 100.773 43.1602Q101.884 44.2759 103.17 45.125Q104.384 45.9263 105.754 46.4902Q106.457 45.4746 107.707 43.9121Q104.865 42.8379 102.785 40.9531Q106.379 36.1875 106.516 28.7559ZM120.031 41.2559L122.609 41.2559L122.609 29.459L120.031 29.459L120.031 41.2559Z" fill="#FFFFFFFF"/>
	</g>
	<rect id="Base Button" rx="16.000000" width="203.000000" height="71.000000" transform="translate(0.500000 0.500000)" stroke="#FFFFFF"/>
	<defs>
		<clipPath id="clip8_3072">
			<rect id="Left Icon" width="32.000000" height="24.000000" transform="translate(56.000000 24.000000)" fill="white"/>
		</clipPath>
		<clipPath id="clip8_3078">
			<rect id="Right Icon" width="32.000000" height="24.000000" transform="translate(147.000000 24.000000)" fill="white"/>
		</clipPath>
		<clipPath id="clip8_3079">
			<rect id="Base Button" rx="16.000000" width="203.000000" height="71.000000" transform="translate(0.500000 0.500000)" fill="white"/>
		</clipPath>
	</defs>
</svg>
