<svg width="464.461" height="158.312" xmlns="http://www.w3.org/2000/svg" fill="none">
 <desc>Created with Pixso.</desc>
 <defs>
  <linearGradient id="svg_6" x1="0" y1="0" x2="0.83203" y2="0.42267">
   <stop stop-color="#fd1c68" offset="0"/>
   <stop stop-color="#fdae8f" stop-opacity="0.99609" offset="1"/>
  </linearGradient>
 </defs>
 <g>
  <title>Layer 1</title>
  <path id="Discover, collect, and sell extraordinary NFTs" d="m219.375,33.3281l-4.078,2.6719q1.922,2.3906 4.219,5.8594l1.593,-1.0313q0.797,2.9531 1.079,5.7657q3.562,0 5.859,-0.1407q2.702,-0.2519 4.084,-1.7343q1.447,-1.5523 1.447,-4.4532l0,-6.9375l4.406,0l0,-5.1562l-4.406,0l0,-3.1407l4.594,0l0,-5.25l-16.922,0q0.281,-1.4062 0.609,-2.9062l13.594,0l0,-5.0625l-12.797,0q0.188,-1.4063 0.375,-2.85938l13.969,0l0,-5.25l-13.453,0q0.141,-1.59374 0.281,-3.32812l-6.234,-0.375q-0.094,1.92188 -0.235,3.70312l-8.109,0l0,5.25l7.688,0q-0.188,1.49998 -0.376,2.85938l-6.562,0l0,5.0625l5.719,0q-0.328,1.5469 -0.657,2.9062l-6.796,0l0,5.25l5.156,0q-2.438,6.4219 -6.516,11.5313q-0.047,-1.2187 -0.094,-2.2969q-2.015,1.3125 -4.078,2.5313l0,-7.3125l4.828,0l0,-5.2969l-4.828,0l0,-4.3125l3.985,0l0,-5.2969l-8.485,0q0.844,-1.6406 1.547,-3.4219l8.391,0l0,-5.24995l-6.422,0q0.75,-2.20313 1.406,-4.59375l-5.765,-1.21875q-1.829,8.625 -5.485,14.85935q0.844,2.9531 1.688,7.5q0.89,-1.2187 1.734,-2.5781l1.453,0l0,4.3125l-4.734,0l0,5.2969l4.734,0l0,8.1562q0.035,1.8614 -0.717,3.3174q-0.27,0.5239 -0.642,0.9951l3.281,4.6407q0.985,-1.1719 3.047,-2.4376q3.188,-2.2031 5.344,-3.5624q1.687,1.5468 2.718,2.5781q1.922,-2.2735 3.563,-4.7344q1.641,-2.4609 3,-5.1094l3,0zm111.094,-3.1406l0,-5.9063l-28.219,0l1.383,-3.4687l30.726,0l0,-6.0937l-28.312,0l1.383,-3.4688l24.023,0l0,-6.09375l-21.586,0l1.992,-4.96875l-7.312,0l-1.969,4.96875l-11.25,0l0,6.09375l8.836,0l-1.359,3.4688l-10.289,0l0,6.0937l7.875,0l-1.688,4.3125l0,4.9688l25.875,0l-7.922,6.0703l-15.281,-5.5547l-3.141,5.2031l27.704,11.3437l3.796,-5.9531l-6.304,-2.4609q5.531,-4.1016 11.039,-8.5547zm-180.703,-21.70312l-5.25,0l0,6.09372l5.25,0l0,8.2735l-5.719,1.0546l0.656,6.7032l5.063,-1.2891l0,8.4141q0,1.2656 -0.446,1.7812q-0.445,0.5156 -1.711,0.5156q-1.312,0 -3.14,-0.1406q1.125,4.0313 1.593,6.375q6.704,0 8.227,-1.5351q1.523,-1.5352 1.523,-4.6055l0,-12.2812l4.032,-0.9844q-0.047,-2.1094 0.187,-6.1406l-4.219,0.914l0,-7.0547l3.985,0l0,-6.09372l-3.985,0l0,-8.25l-6.046,0l0,8.25zm28.359,4.07812l11.437,0l0,-5.625l-11.437,0l0,-6.70312l-6.75,0l0,6.70312l-10.313,0l0,5.625l10.313,0l0,5.2031l-10.406,0l0,5.8594l20.015,0q-2.156,4.5 -6.422,8.1562q-3.126,-2.5708 -5.506,-5.708q-0.831,-1.0957 -1.572,-2.2607l-5.296,3.1406q3.21,4.7344 7.148,8.5078q-4.852,2.8594 -11.414,5.0391q2.156,3.4688 3.703,6.0938q7.477,-2.8126 13.078,-6.6797q5.485,3.9375 12.094,6.3984q1.5,-2.3437 3.797,-6.3281q-5.86,-1.7578 -10.547,-4.4297q3.87,-3.7217 6.421,-8.1958q1.079,-1.8931 1.923,-3.9214l0,-5.6719l-10.266,0l0,-5.2031zm89.484,2.5313l-14.297,0l0,5.25l32.438,0l0,-5.25l-11.906,0l0,-3.75l10.172,0l0,-5.25005l-10.172,0l0,-5.8125l-6.235,0l0,5.8125l-4.593,0q0.562,-1.59375 1.125,-3.32813l-5.485,-1.73437q-1.968,6.65625 -4.453,11.48435q2.953,1.3594 5.25,2.4844q0.797,-1.6875 1.594,-3.6562l6.562,0l0,3.75zm-138.375,13.8046l-15.234,1.3828l0.797,5.9063l14.437,-1.3125l0,11.5312l6.61,0l0,-12.1171l6.89,-0.6329l-0.515,-5.9531l-6.375,0.586l0,-27.96097l-6.61,0l0,28.57027zm-101.3434,-17.5546l-7.0312,0l0,7.875l-10.5469,0l1.7344,-10.17192q16.2187,-0.32813 30.0469,-1.92188l-2.3907,-6.23437q-16.6875,2.06249 -34.0781,2.39062l-3.42188,22.12495l18.65628,0l0,11.1094q0,1.231 -0.6109,1.9234q-0.7844,0.8891 -2.5766,0.8891q-2.625,0 -5.9531,-0.375q0.7968,2.8594 1.5937,6.9844q5.3437,-0.0234 8.2734,-0.2227q2.1,-0.1425 3.5617,-1.1826q0.5776,-0.4111 1.0555,-0.9619q1.6875,-1.9453 1.6875,-5.6953l0,-12.4688l16.5,0l0,-6.1874l-16.5,0l0,-7.875zm225.4214,-1.7813q-2.812,-4.03125 -6.328,-8.625l-5.015,3.09375q3.047,4.35937 5.859,9.23435l5.484,-3.7031zm-152.22,14.2983q-2.0997,4.1509 -5.1389,7.8267q1.3594,4.4063 2.1563,7.5q2.7656,-3.9844 4.9686,-8.625l0,15.8437l6.094,0l0,-20.2265q1.711,1.8515 4.031,4.5703l3.938,-3.5625q-2.344,-2.4375 -5.719,-5.4375l-2.25,2.1094l0,-4.0313l6.094,0l0,-6.0469l-6.094,0l0,-5.88276q3.68,-0.42188 6.844,-0.86719l-1.782,-5.48437q-8.203,1.17187 -17.9059,1.92187q0.6094,2.39063 1.0781,5.57813l5.6718,-0.51563l0,5.24995l-6.703,0l0,6.0469l6.492,0q-0.783,2.0694 -1.775,4.0327zm278.877,-10.7358l0,-11.25l-40.36,0l0,20.8125q-0.047,7.3359 -0.914,11.2617q-0.736,3.3316 -2.164,6.334q-0.254,0.5356 -0.531,1.0606q1.875,2.2968 4.219,5.5781q5.578,-7.6641 5.578,-24.3281l0,-9.4688l34.172,0zm-287.5315,-11.0625l-42.2813,0l0,44.0625l6.2813,0l0,-38.20312l29.7187,0l0,29.10932q0,1.1719 -0.4804,1.875q-0.302,0.4419 -0.7197,0.6846q-0.2469,0.1436 -0.5342,0.2178q-0.7735,0.1992 -2.6485,0.1992q-2.4375,0 -5.3672,-0.3047q0.75,2.7657 1.4532,6.5157q4.5468,0 7.7461,-0.0586q2.3814,-0.0435 3.9966,-1.1783q0.5546,-0.3896 1.019,-0.9077q1.8164,-2.0273 1.8164,-6.1054l0,-35.9063zm311.8595,16.7813l-19.781,0l0,6.6562l19.781,0l0,9.2812q0,1.9454 -0.973,2.918q-0.972,0.9727 -2.918,0.9727q-3.984,0 -8.015,-0.4219q1.031,3.6094 1.687,7.125q6.234,-0.0234 9.879,-0.1055q2.734,-0.0615 4.492,-1.4028q0.586,-0.4463 1.063,-1.0347q1.91,-2.3554 1.91,-7.0664l0,-10.2656l18.703,0l0,-6.6562l-18.703,0l0,-9.2813l15.375,0l0,-6.65625l-38.813,0l0,6.65625l16.313,0l0,9.2813zm-275.438,-8.625q-4.359,-3.93755 -7.921,-6.56255l-3.938,3.98437q3.984,3.14058 7.5,6.89058l4.359,-4.3124zm245.063,-3.4688l0,1.96875l-28.125,0l0,-1.96875l28.125,0zm-315.1876,10.3125l25.125,0l0,-5.3437l-25.125,0l0,5.3437zm314.9996,24.75q-0.937,-4.4531 -1.312,-6.0469l-3.61,0.6094l0.188,1.2188l-2.484,0.164l0,-2.5078l8.625,0l0,5.5312q0,1.2281 -0.608,1.7564q-0.46,0.3999 -1.267,0.3999q-1.969,0 -4.454,-0.0937q0.516,1.5937 0.985,3.7031q5.461,0 7.219,-0.0821q0.936,-0.0434 1.662,-0.456q0.638,-0.3623 1.115,-1.0088q1.019,-1.3828 1.019,-4.0781l0,-9.7969l-14.296,0l0,-1.6406l12.234,0l0,-9.1406l-12.234,0l0,-1.9688q8.367,-0.1641 13.218,-0.375l-1.125,-3.75q-13.359,0.6562 -31.781,0.5625l1.125,3.8437l12.891,-0.1874l0,1.875l-12.282,0l0,9.1406l12.282,0l0,1.6406l-14.203,0l0,15.4688l5.671,0l0,-11.3438l8.532,0l0,2.7891l-7.406,0.3047l0.703,4.6406l15.492,-1.6172q0.117,0.5859 0.211,1.1484l3.89,-0.7031zm-246.375,-19.6406q-3.89,-3.5625 -8.015,-6.6094l-3.985,4.0781q4.407,3.4219 7.594,6.7969l4.406,-4.2656zm157.172,23.25l1.875,-6.0469q-8.367,0.2812 -23.859,0.2812q-7.323,0 -10.984,-3.6611q-0.136,-0.1357 -0.266,-0.2763l0,-18.1876l-10.5,0l0,5.9532l4.359,0l0,11.9062l-4.828,4.125l2.813,6.9844q2.25,-2.3906 5.437,-5.5781q1.058,0.9619 2.25,1.7109q3.746,2.3526 8.813,2.6016q6.679,0.3281 24.89,0.1875zm-202.4529,-24.7031l-21.75,0l0,19.4062l6.0938,0l0,-3l15.6562,0l0,-16.4062zm200.8599,1.875l-26.016,0l0,14.1562l26.016,0l0,-14.1562zm77.906,3.375l-6.656,0l0,-2.0626l6.656,0l0,2.0626zm5.672,-2.0626l6.656,0l0,2.0626l-6.656,0l0,-2.0626zm-138.938,4.2657l-8.859,0q0.609,-1.5469 1.125,-3.1407l7.734,0l0,3.1407zm-151.5936,-2.2031l0,5.9062l-9.5625,0l0,-5.9062l9.5625,0zm-59.8125,3.75l-6.0469,-3.1876q-4.40625,7.4532 -10.125,13.4063q2.4375,1.7344 5.25,4.3594q5.9062,-6.375 10.9219,-14.5781zm30.2812,10.0312q-5.8593,-8.4375 -9.8906,-13.0781l-5.2031,3.4687q3.8906,5.0156 8.9531,13.6875q2.9531,-2.0625 6.1406,-4.0781zm216.6089,-12l13.735,0l0,3.8438l-13.735,0l0,-3.8438zm-41.859,13.0312l3.422,-2.2968q-1.547,-2.0625 -4.125,-5.1563l7.078,0l0,5.1094q0,1.334 -0.666,1.9673q-0.668,0.6343 -2.006,0.564q-1.547,-0.0469 -3.703,-0.1876zm-28.078,31.625l21.375,0l0,-4.9687l-6.984,0l0,-3.0469l8.859,0l0,-5.0625l-8.859,0l0,-3.3281l-6.188,0l0,3.3281l-9.14,0l0,5.0625l9.14,0l0,3.0469l-8.203,0l0,4.9687zm-83.063,-16.3593l-6.421,0q-2.719,5.7187 -8.1566,10.3125q1.9687,2.0625 3.75,4.3125q0.5625,-0.4688 1.1246,-0.9844l0,4.0313l16.079,0l0,2.8124l-15.516,0l-2.2501,12.9376l11.0621,0q-5.179,4.1484 -13.7809,6.9374q2.1563,3.375 3.5157,5.6718q10.9692,-4.4999 16.9692,-11.2733l0,11.5543l6.421,0l0,-12.8902l12.141,0q-0.188,2.5078 -0.375,3.3632q-0.046,0.2085 -0.133,0.3985q-0.269,0.5883 -0.933,0.9961q-0.879,0.539 -2.473,0.539q-0.164,0 -6.398,-0.2812q0.984,3 1.593,5.7656q9.797,0.094 11.157,-0.832q1.359,-0.9258 2.519,-2.3086q1.16,-1.3828 1.418,-12.7032l-18.516,0l0,-2.8124l16.313,0l0,-12.8907l-5.039,0l2.836,-2.3437q-1.336,-1.336 -2.836,-2.625l7.945,0l0,-4.4532l-12.398,0q0.703,-1.5703 1.336,-3.2343l-6.469,0q-0.609,1.4829 -1.368,2.8847q-1.316,2.4302 -3.085,4.6153l0,-4.2657l-11.649,0q0.844,-1.5703 1.617,-3.2343zm127.688,12l0,-5.4375l-13.172,0q0.68,-2.6016 1.36,-5.4844l-5.766,-1.0312q-2.11,10.5468 -5.531,17.9062q2.297,0.9844 5.25,2.5312q1.547,-3.4218 3.047,-8.1562l8.953,0l-1.735,7.5469l5.532,1.1719l2.062,-9.0469zm22.664,-7.0781l-18.305,0l0,5.2031l11.368,0l-3.68,1.6875q1.148,1.4531 2.062,2.7187l-11.625,0l0,5.2031l46.266,0l0,-5.2031l-11.578,0l2.156,-2.6719l-3.633,-1.7343l11.274,0l0,-5.2031l-17.203,0q-0.938,-2.5313 -1.875,-4.8282l-6.61,1.125q0.774,1.9688 1.383,3.7032zm-196.7578,-3.5157l-6.9843,-1.0781q-0.5391,2.8594 -1.8985,7.4531l-4.9453,0l0,38.1099l6.5157,0l0,-3.6568l6.6562,0l0,3.3748l6.5156,0l0,-27.9138q3.3047,1.4297 5.5313,2.8828q1.7343,-3.0938 3.2812,-6.375l8.1563,0q0,2.7891 -0.0938,7.2656l-0.2109,9.586q-0.1172,5.1093 -0.3047,5.7656q-0.0297,0.1035 -0.0677,0.2041q-0.2032,0.5356 -0.6471,0.9795q-0.5274,0.5273 -1.3477,0.7851q-0.8203,0.2579 -1.9453,0.2579q-3.9141,0 -7.3828,-0.2813q1.0781,2.9531 1.7812,7.0785q7.7578,0 10.0664,-0.399q2.3086,-0.398 3.5977,-1.4998q0.2441,-0.2085 0.4639,-0.4404q0.9405,-0.9917 1.4345,-2.4073q0.6094,-1.7461 0.7266,-6.1054l0.5391,-26.9766l-12.0938,0q1.1719,-2.9766 2.2031,-6.0937l-6.4687,-1.6876q-3.4453,10.3594 -7.2188,16.6876l0,-9.1407l-7.9687,0l2.1093,-6.375zm-48.1406,0.9375l-6.18748,-2.0156q-3.60937,12 -9.32812,21.375l1.96875,9.0469q1.82813,-2.7188 3.46875,-5.5313l0,20.7184l6.2813,0l0,-33.2106q2.1328,-5.0625 3.7968,-10.3828zm30,9.2344l0,-5.4375l-19.6172,0q0.8438,-2.2734 1.6641,-4.7344l-6.6563,-0.8906q-3.0468,9.8906 -7.6406,16.7813q3.0469,2.2968 4.9219,3.9374q2.8359,-3.9843 5.2969,-9.3281l15.4687,0l-1.7812,6.6563l6.1875,1.2187l2.1562,-8.2031zm270.3754,-0.2812l-7.032,0l0,7.875l-10.547,0l1.735,-10.1719q16.219,-0.3281 30.047,-1.9219l-2.391,-6.2344q-16.687,2.0625 -34.078,2.3906l-3.422,22.125l18.656,0l0,11.1094q0,1.231 -0.61,1.9234q-0.785,0.8891 -2.577,0.8891q-2.625,0 -5.953,-0.375q0.797,2.8594 1.593,6.9849q5.344,-0.024 8.274,-0.223q2.1,-0.143 3.562,-1.183q0.577,-0.411 1.055,-0.9617q1.688,-1.9453 1.688,-5.6953l0,-12.4688l16.5,0l0,-6.1874l-16.5,0l0,-7.875zm-206.368,-3.6094l-1.945,1.5q1.945,1.875 3.469,3.4687l-9.68,0q2.321,-2.2734 4.242,-4.9687l3.914,0zm6.633,2.9531q-1.617,-1.5469 -3.258,-2.9531l7.102,0q-0.68,0.8672 -1.406,1.6875q2.648,1.7109 4.781,3.2812l-9.703,0l2.484,-2.0156zm16.196,2.0156l-8.672,0q1.992,-2.2969 3.632,-4.9687l3.024,0l-1.664,1.4062q2.086,1.875 3.68,3.5625zm135,1.875l-7.782,0q-1.476,-2.1093 -3.398,-4.4062l14.344,0q-1.43,2.2031 -3.164,4.4062zm-211.0082,-0.6093l6.6562,0l0,8.0156l-6.6562,0l0,-8.0156zm-22.6876,25.5468l0,-24.7031l-6.5156,0l0,22.8281q0,1.2481 -0.6042,1.7163q-0.0198,0.0152 -0.0403,0.0298q-0.6445,0.4571 -2.4258,0.4571q-1.5703,0 -3.8672,-0.1876q0.7969,3.2813 1.1719,6.0468q4.7109,0.047 7.3477,-0.187q2.5274,-0.225 3.6873,-1.6019q0.0502,-0.0596 0.0978,-0.1211q1.1484,-1.4883 1.1484,-4.2774zm194.8598,-22.9687l-5.672,0q0,8.9297 -2.297,14.5547q-2.297,5.625 -8.297,10.4296q2.062,2.5308 4.125,5.3438q7.266,-6.6094 9.422,-14.0391q1.74,5.4776 5.141,9.5772q1.866,2.2509 4.234,4.0869q2.203,-4.1719 3.562,-6.2812q-1.658,-0.9883 -3.064,-2.2569q-5.962,-5.3818 -7.365,-15.8135q0.164,-2.5312 0.211,-5.6015zm-95.672,1.1719l0,2.8124l-9.985,0l0,-2.8124l9.985,0zm60.797,6l20.765,0l0,-4.9688l-20.765,0l0,4.9688zm-3.657,-3.9376l-45.281,0l0,6.9376l45.281,0l0,-6.9376zm-105.8434,9.8907q-3.8906,-5.7657 -7.2656,-9.7969l-5.4375,3.75q3.2344,4.125 6.7969,9.9844l5.9062,-3.9375zm-65.0625,-8.9531q-2.6719,8.7656 -5.9062,15.5624q3.2343,1.3126 5.9062,2.625q3.4688,-7.7343 6,-16.5937l-6,-1.5937zm27.4688,16.4531q-3.375,-10.875 -5.3907,-15.9844l-5.7656,1.5469q2.2969,6.9375 4.7344,16.5l6.4219,-2.0625zm199.1251,-14.5781l0,23.8122l6.375,0l0,-2.297l22.547,0l0,2.297l6.375,0l0,-23.8122l-35.297,0zm-129.234,5.8124l-10.688,0l0.516,-2.8124l10.172,0l0,2.8124zm83.765,4.9688l-5.391,-1.5q-1.359,5.8125 -3,9.8906l5.204,1.8516q0.328,1.2418 0.656,2.7418q5.648,0 7.242,-0.398q0.958,-0.24 1.649,-0.805q0.459,-0.375 0.8,-0.894q0.856,-1.3011 0.856,-3.4808l0,-9.6093l8.343,0l0,-5.0625l-24.374,0l0,5.0625l9.937,0l0,7.6406q0,0.6152 -0.274,1.0625q-0.102,0.166 -0.242,0.3086q-0.515,0.5273 -3.515,0.3867q1.078,-3.375 2.109,-7.1953zm103.969,-3.6562l-6.047,-3.1876q-4.406,7.4532 -10.125,13.4063q2.438,1.7344 5.25,4.3595q5.906,-6.3751 10.922,-14.5782zm30.281,10.0312q-5.859,-8.4375 -9.891,-13.0781l-5.203,3.4687q3.891,5.0156 8.953,13.6875q2.954,-2.0625 6.141,-4.0781zm-82.406,-12.0938l22.547,0l0,3.3282l-22.547,0l0,-3.3282zm-189.047,8.4844l-6.6562,0l0,-8.0156l6.6562,0l0,8.0156zm153.656,0.4219q-1.828,-2.4375 -4.265,-5.1094l-4.079,3.0469q2.391,2.8594 4.126,5.3438l4.218,-3.2813zm57.938,2.5781l-22.547,0l0,-3.375l22.547,0l0,3.375z" fill="#FFFFFFFF"/>
  <text fill="url(#svg_6)" x="307.23053" y="146.65601" id="svg_1" stroke-width="0" font-size="36" font-family="Noto Sans JP" text-anchor="start" xml:space="preserve" font-weight="bold">NFT &amp; X</text>
 </g>
</svg>