<svg width="80.000000" height="80.000000" viewBox="0 0 80 80" fill="none" xmlns="http://www.w3.org/2000/svg" xmlns:xlink="http://www.w3.org/1999/xlink">
	<desc>
			Created with Pixso.
	</desc>
	<rect id="Icon Button" rx="40.000000" width="80.000000" height="80.000000" fill="url(#paint_linear_8_2936_0)"/>
	<g clip-path="url(#clip8_2936)">
		<path id="Vector" d="M48.73 26.52L48.75 26.5C49.3101 26.5 49.75 26.9399 49.75 27.5C49.75 28.0601 49.3101 28.5 48.75 28.5L48.73 28.48L48.73 26.52ZM26.25 50C26.25 50.6631 26.5134 51.2988 26.9822 51.7676C27.451 52.2368 28.0869 52.5 28.75 52.5L53.75 52.5C54.0815 52.5 54.3994 52.3682 54.6339 52.1338C54.8683 51.8994 55 51.5815 55 51.25L55 33.75C55 33.4185 54.8683 33.1006 54.6339 32.8662C54.3994 32.6318 54.0815 32.5 53.75 32.5L28.75 32.5C28.0869 32.5 27.451 32.2368 26.9822 31.7676C26.5135 31.2993 26.2502 30.6626 26.25 30L26.25 50Z" fill-rule="evenodd" fill="#FFFFFF"/>
		<path id="Vector" d="M48.75 27.5L28.75 27.5C28.0869 27.5 27.451 27.7632 26.9822 28.2324C26.5134 28.7012 26.25 29.3369 26.25 30L26.25 50C26.25 50.6631 26.5134 51.2988 26.9822 51.7676C27.451 52.2368 28.0869 52.5 28.75 52.5L53.75 52.5C54.0815 52.5 54.3994 52.3682 54.6339 52.1338C54.8683 51.8994 55 51.5815 55 51.25L55 33.75C55 33.4185 54.8683 33.1006 54.6339 32.8662C54.3994 32.6318 54.0815 32.5 53.75 32.5L28.75 32.5C28.0869 32.5 27.451 32.2368 26.9822 31.7676C26.5134 31.2988 26.25 30.6631 26.25 30" stroke="#FFFFFF" stroke-width="2.000000" stroke-linejoin="round"/>
		<path id="Vector" d="M50 42.5C50 43.5356 49.1605 44.375 48.125 44.375C47.0895 44.375 46.25 43.5356 46.25 42.5C46.25 41.4644 47.0895 40.625 48.125 40.625C49.1605 40.625 50 41.4644 50 42.5Z" fill-rule="evenodd" fill="url(#paint_linear_8_2933_0)"/>
	</g>
	<defs>
		<clipPath id="clip8_2936">
			<rect id="Icon Button" rx="40.000000" width="80.000000" height="80.000000" fill="white"/>
		</clipPath>
		<linearGradient id="paint_linear_8_2936_0" x1="40.071037" y1="-16.752117" x2="17.335670" y2="94.814819" gradientUnits="userSpaceOnUse">
			<stop stop-color="#23D3A4"/>
			<stop offset="1.000000" stop-color="#5B49CF"/>
		</linearGradient>
		<linearGradient id="paint_linear_8_2933_0" x1="48.128330" y1="39.839745" x2="47.062607" y2="45.069443" gradientUnits="userSpaceOnUse">
			<stop stop-color="#23D3A4"/>
			<stop offset="1.000000" stop-color="#5B49CF"/>
		</linearGradient>
	</defs>
</svg>
