<svg width="20.750000" height="18.500488" viewBox="0 0 20.75 18.5005" fill="none" xmlns="http://www.w3.org/2000/svg" xmlns:xlink="http://www.w3.org/1999/xlink">
	<desc>
			Created with Pixso.
	</desc>
	<path id="Vector" d="M1 5.87549C1.00024 4.74854 1.39062 3.65674 2.10498 2.78564C2.81909 1.91406 3.81323 1.31689 4.91797 1.0957C6.02271 0.874023 7.17017 1.04248 8.16504 1.57129C9.15991 2.1001 9.94067 2.95752 10.375 3.99707L10.375 3.99707C10.8093 2.95752 11.5901 2.1001 12.585 1.57129C13.5798 1.04248 14.7273 0.874023 15.832 1.0957C16.9368 1.31689 17.9309 1.91406 18.645 2.78564C19.3594 3.65674 19.7498 4.74854 19.75 5.87549C19.75 12.2505 10.375 17.5005 10.375 17.5005C10.375 17.5005 1 12.2505 1 5.87549Z" stroke="#FFFFFF" stroke-width="2.000000" stroke-linejoin="round"/>
	<defs/>
</svg>
