<svg width="278.000000" height="56.000000" viewBox="0 0 278 56" fill="none" xmlns="http://www.w3.org/2000/svg" xmlns:xlink="http://www.w3.org/1999/xlink">
	<desc>
			Created with Pixso.
	</desc>
	<rect id="Base Button" rx="12.000000" width="278.000000" height="56.000000" fill="url(#paint_linear_8_3251_0)"/>
	<g clip-path="url(#clip8_3251)">
		<g clip-path="url(#clip8_3244)">
			<path id="Vector" d="M97.631 33.5415C97.6812 33.6094 97.7445 33.6665 97.8174 33.709C97.8901 33.752 97.9708 33.7798 98.0546 33.7905C98.1383 33.8013 98.2234 33.7949 98.3047 33.772C102.03 32.7432 105.965 32.7427 109.691 33.771C109.772 33.7939 109.857 33.7998 109.941 33.7891C110.025 33.7783 110.105 33.751 110.178 33.708C110.251 33.6655 110.314 33.6084 110.365 33.5405C110.415 33.4727 110.451 33.395 110.47 33.313L112.461 24.8511C112.488 24.7378 112.483 24.6191 112.445 24.5088C112.408 24.3984 112.341 24.3008 112.252 24.2266C112.162 24.1523 112.053 24.1045 111.938 24.0884C111.823 24.0728 111.705 24.0894 111.599 24.1367L107.647 25.8931C107.505 25.9565 107.343 25.9639 107.195 25.9146C107.047 25.8652 106.923 25.7617 106.847 25.6255L104.546 21.4834C104.492 21.3862 104.413 21.3052 104.317 21.2485C104.221 21.1919 104.111 21.1621 104 21.1621C103.888 21.1621 103.779 21.1919 103.683 21.2485C103.587 21.3052 103.508 21.3862 103.453 21.4834L101.152 25.6255C101.077 25.7617 100.952 25.8652 100.804 25.9146C100.656 25.9639 100.495 25.9565 100.352 25.8931L96.3998 24.1362C96.2935 24.0889 96.1761 24.0723 96.0608 24.0884C95.9456 24.104 95.837 24.1519 95.7473 24.2261C95.6577 24.3003 95.5906 24.3979 95.5536 24.5083C95.5165 24.6187 95.511 24.7368 95.5376 24.8501L97.5255 33.314C97.5449 33.396 97.5808 33.4736 97.631 33.5415Z" stroke="#FFFFFF" stroke-width="2.000000" stroke-linejoin="round"/>
			<path id="Vector" d="M101.5 30.6313C103.162 30.4561 104.838 30.4561 106.5 30.6313" stroke="#FFFFFF" stroke-width="2.000000" stroke-linejoin="round" stroke-linecap="round"/>
		</g>
		<path id="Label" d="M127.188 23.3359L120.75 23.3359L120.75 25.3984L135.312 25.3984L135.312 23.3359L128.602 23.3359L129.672 22.8359Q129.031 21.6953 128.203 20.5234L126.062 21.4922Q126.727 22.4766 127.188 23.3359ZM178.484 20.9609L176.578 20.6484Q175.984 22.9688 174.984 24.7656L174.984 21.3672L168.797 21.3672L168.797 31.1328L170.406 31.1328L170.406 23.1641L173.375 23.1641L173.375 31.0703L174.984 31.0703L175.625 32.3516Q176.383 32.0781 179.82 31.8125L180.078 32.6484L181.234 32.2266L181.234 32.5547Q181.234 33.2607 180.883 33.5776Q180.597 33.8359 180.078 33.8359Q179.594 33.8359 177.375 33.7734Q177.688 34.9297 177.859 35.8672Q180.68 35.8359 181.41 35.7148Q181.622 35.6797 181.814 35.5972Q182.282 35.3955 182.629 34.9102Q183.117 34.2266 183.141 32.9453L183.188 28.7891L183.219 22.7734L177.914 22.7734Q178.211 21.9141 178.484 20.9609ZM164.937 31.7656Q165.846 31.0454 165.922 29.2734Q165.938 28.7422 165.984 27.1641Q166.375 27.4766 166.781 27.7422Q167.25 26.7422 167.828 25.7891Q165.328 24.1797 163.266 21.2422Q163.391 20.9766 163.5 20.7422L161.266 20.7422Q159.896 23.229 157.957 25.1392Q157.265 25.8213 156.5 26.4297Q157.125 27.1016 157.516 27.6016Q156.781 27.7734 156.141 27.9141L156.141 25.3984L157.562 25.3984L157.562 23.3672L156.141 23.3672L156.141 20.6953L154.125 20.6953L154.125 23.3672L152.438 23.3672L152.438 25.3984L154.125 25.3984L154.125 28.3516Q152.984 28.6016 152.188 28.7422L152.406 30.9766Q153.328 30.7266 154.125 30.5078L154.125 33.2734Q154.125 33.7866 153.884 33.9561Q153.772 34.0342 153.609 34.0391Q153.125 34.0391 152.359 33.9922Q152.734 35.3359 152.891 36.1172Q153.859 36.1016 154.766 35.9766Q155.306 35.8906 155.634 35.5801Q156.141 35.1006 156.141 34.0859L156.141 29.9766Q156.922 29.7734 157.516 29.6328Q157.5 28.9609 157.562 27.6797Q157.672 27.8203 157.766 27.9453Q158 27.7578 158.25 27.5547L158.25 33.6641Q158.25 34.6973 158.766 35.2422Q159.342 35.8516 160.562 35.8516L164.484 35.8516Q166.015 35.8516 166.763 35.0864Q167.229 34.6099 167.391 33.8359Q167.625 32.7109 167.766 31.7891Q166.812 31.5234 165.75 31.1641Q165.703 31.7891 165.516 33.0234Q165.466 33.4004 165.256 33.6279Q164.934 33.9766 164.234 33.9766L161.391 33.9766Q160.745 33.9766 160.47 33.6572Q160.266 33.4204 160.266 33.0078L160.266 27.9922L163.969 27.9922Q163.953 28.6484 163.922 29.2891Q163.876 29.9673 163.518 30.2476Q163.266 30.4453 162.859 30.4453Q162.25 30.4453 160.891 30.3516Q161.188 31.6016 161.281 32.2578Q162.156 32.2891 163.406 32.2578Q164.347 32.2334 164.937 31.7656ZM142.828 34.8359L144.641 33.8359Q143.539 31.7344 142.297 29.6797L144 29.6797L144 21.2734L137.125 21.2734L137.125 32.3828Q137.125 33.4141 136.625 33.9766L137.625 35.5547Q138.992 34.8516 142.25 33.6797L142.828 34.8359ZM151 21.6484L144.812 21.6484L144.812 35.9922L146.844 35.9922L146.844 23.6484L148.969 23.6484L148.969 30.9766Q148.969 31.3794 148.77 31.5459Q148.63 31.6641 148.391 31.6641Q147.805 31.6641 146.906 31.5703Q147.078 32.4141 147.219 33.6641Q148.633 33.6797 149.395 33.6367Q149.862 33.6104 150.202 33.3882Q150.415 33.2485 150.578 33.0312Q151 32.4688 151 31.3828L151 21.6484ZM159.625 26.2422Q161.016 24.7734 162.188 23.0859Q162.422 23.4297 162.671 23.7622Q163.669 25.0923 164.906 26.2422L159.625 26.2422ZM139.156 23.2109L142 23.2109L142 24.6016L139.156 24.6016L139.156 23.2109ZM172.656 23.8203L171.125 23.8203L171.125 29.2266Q171.125 30.7363 170.523 31.9463Q169.792 33.417 168.172 34.4453Q168.859 35.3672 169.281 36.0547Q171.04 34.7061 171.878 32.9243Q171.933 32.8071 171.984 32.6875Q173.25 34.2031 174.203 35.5859L175.672 34.2109Q173.781 32.0703 172.531 30.7891Q172.656 30.0547 172.656 29.2578L172.656 23.8203ZM181.25 30.4688Q180.68 28.7656 180.078 27.3359L178.5 27.9141Q178.875 28.9141 179.258 30.0625L177.25 30.2266Q178.016 28.6641 179.125 26.1172L177.328 25.5391Q175.961 29.5625 174.984 30.375L174.984 26.3516Q175.359 26.7188 175.766 27.1797Q176.516 26.1094 177.156 24.6797L181.266 24.6797Q181.266 28.2344 181.25 30.4688ZM128.25 33.3984L120.344 33.3984L120.344 35.4922L135.656 35.4922L135.656 33.3984L130.68 33.3984Q132.391 29.9141 133.875 26.3828L131.594 25.6016Q130.102 29.7422 128.25 33.3984ZM127 32.3047Q125.859 29.1641 124.234 25.6484L122.172 26.4297Q123.625 29.6953 124.75 33.1328L127 32.3047ZM142 26.3516L142 27.7422L139.156 27.7422L139.156 26.3516L142 26.3516ZM142.031 29.6797L140.609 30.4609L141.438 32.0703L139.156 32.8828L139.156 29.6797L142.031 29.6797Z" fill="#FFFFFFFF"/>
	</g>
	<defs>
		<clipPath id="clip8_3244">
			<rect id="Left Icon" width="26.000000" height="20.000000" transform="translate(94.000000 18.000000)" fill="white"/>
		</clipPath>
		<clipPath id="clip8_3250">
			<rect id="Right Icon" width="26.000000" height="20.000000" transform="translate(97.000000 18.000000)" fill="white"/>
		</clipPath>
		<clipPath id="clip8_3251">
			<rect id="Base Button" rx="12.000000" width="278.000000" height="56.000000" fill="white"/>
		</clipPath>
		<linearGradient id="paint_linear_8_3251_0" x1="139.246826" y1="-11.726532" x2="60.241241" y2="66.370270" gradientUnits="userSpaceOnUse">
			<stop stop-color="#FDAE8F"/>
			<stop offset="1.000000" stop-color="#FD1C68"/>
		</linearGradient>
	</defs>
</svg>
