<svg width="224.000000" height="72.000000" viewBox="0 0 224 72" fill="none" xmlns="http://www.w3.org/2000/svg" xmlns:xlink="http://www.w3.org/1999/xlink">
	<desc>
			Created with Pixso.
	</desc>
	<rect id="Base Button" rx="16.000000" width="224.000000" height="72.000000" fill="url(#paint_linear_8_3022_0)"/>
	<g clip-path="url(#clip8_3022)">
		<g clip-path="url(#clip8_3015)">
			<path id="Vector" d="M64.8179 41.3027C63.7573 44.4849 59.5146 44.4849 59.5146 44.4849C59.5146 44.4849 59.5146 40.2422 62.6967 39.1816" stroke="#FFFFFF" stroke-width="2.000000" stroke-linejoin="round" stroke-linecap="round"/>
			<path id="Vector" d="M67.9999 40.2427L63.7573 36L70.1213 29.6362C72.5311 27.2266 74.9408 27.25 75.9685 27.4033C76.1268 27.4268 76.2732 27.5005 76.3864 27.6138C76.4995 27.7271 76.5732 27.8735 76.5969 28.0317C76.7502 29.0596 76.7737 31.4692 74.364 33.8789L67.9999 40.2427Z" stroke="#FFFFFF" stroke-width="2.000000" stroke-linejoin="round"/>
			<path id="Vector" d="M73.3033 34.9395L73.3033 40.9927C73.3033 41.0913 73.2839 41.189 73.2462 41.2798C73.2085 41.3706 73.1533 41.4536 73.0836 41.5229L70.0516 44.5552C69.9556 44.6509 69.8354 44.7192 69.7037 44.7524C69.572 44.7852 69.4338 44.7817 69.3039 44.7427C69.174 44.7031 69.0572 44.6294 68.9659 44.5288C68.8747 44.4282 68.8124 44.3052 68.7858 44.1719L68 40.2427" stroke="#FFFFFF" stroke-width="2.000000" stroke-linejoin="round" stroke-linecap="round"/>
			<path id="Vector" d="M69.0607 30.6963L63.0074 30.6963C62.9089 30.6963 62.8113 30.7158 62.7204 30.7534C62.6294 30.791 62.5467 30.8462 62.4771 30.916L59.445 33.9482C59.349 34.0439 59.2809 34.1641 59.2479 34.2959C59.2148 34.4277 59.2182 34.5659 59.2575 34.6958C59.2969 34.8257 59.3707 34.9424 59.4713 35.0337C59.5718 35.125 59.6951 35.187 59.8282 35.2139L63.7574 35.9995" stroke="#FFFFFF" stroke-width="2.000000" stroke-linejoin="round" stroke-linecap="round"/>
		</g>
		<path id="Label" d="M116.33 31.6855L118.898 31.6855L118.898 29.498L115.568 29.498Q115.236 28.2871 114.855 27.291L111.926 27.7793Q112.297 28.5898 112.609 29.498L108.82 29.498L108.82 31.6855L111.311 31.6855L109.406 32.7793Q110.139 33.7363 110.705 34.6152L108.371 34.6152L108.371 36.8027L119.328 36.8027L119.328 34.6152L117.072 34.6152Q117.814 33.541 118.449 32.5449L116.33 31.6855ZM162.004 27.3887L159.289 27.3887Q157.854 30.5137 155.93 32.6133L155.93 27.3496L153.312 27.3496L153.312 34.8105L155.93 34.8105L155.93 32.7793Q156.672 33.4629 157.531 34.5762Q158.957 33.1406 160.197 31.041L162.092 31.041L160.832 31.9785Q162.258 33.5801 163.527 35.2207L165.695 33.6777Q164.455 32.4277 162.99 31.041L167.375 31.041L167.375 28.834L161.359 28.834Q161.691 28.1406 162.004 27.3887ZM96.5352 43.4238L89.1523 43.4238L89.1523 45.9238L106.848 45.9238L106.848 43.4238L99.4453 43.4238L99.4453 41.0801L105.324 41.0801L105.324 38.5801L99.4453 38.5801L99.4453 36.6074L103.234 36.6074L103.234 35.0059Q104.504 35.8652 105.969 36.6465Q106.691 35.6309 107.727 34.3418Q102.18 31.7441 99.6602 28.1309L100.168 27.3887L96.75 27.3887Q94.5234 31.2168 88.2734 34.5762Q89.4453 36.0605 90.0117 36.8613Q91.4766 35.9824 92.7656 35.0645L92.7656 36.6074L96.5352 36.6074L96.5352 38.5801L90.7148 38.5801L90.7148 41.0801L96.5352 41.0801L96.5352 43.4238ZM151.691 27.916L149.406 27.916L149.406 34.7324L151.691 34.7324L151.691 27.916ZM127.581 39.8149Q127.203 37.5288 125.188 35.5137Q126.613 32.0762 127.297 30.2012L127.297 28.3262L119.973 28.3262L119.973 46.6465L122.473 46.6465L122.473 30.5918L124.602 30.5918Q123.703 33.3457 122.688 35.748Q125.031 38.1895 125.031 40.377Q125.031 40.9678 124.736 41.2656Q124.436 41.5684 123.83 41.5684Q123.498 41.5684 122.746 41.4512Q123.098 42.877 123.234 44.2637Q125.939 44.3027 126.804 43.3994Q126.878 43.3218 126.946 43.2388Q127.668 42.3574 127.668 40.8848Q127.668 40.3428 127.581 39.8149ZM137.18 32.4277L137.18 41.8027L139.699 41.8027L139.699 34.8496L144.484 34.8496L144.484 41.8027L147.004 41.8027L147.004 32.4277L142.805 32.4277L143.176 30.748L147.336 30.748L147.336 28.3262L136.789 28.3262L136.789 30.748L140.539 30.748L140.227 32.4277L137.18 32.4277ZM135.891 41.1777L136.516 34.6738L133.625 34.6738L136.242 30.8652L136.242 28.3652L128.547 28.3652L128.547 30.709L133.625 30.709L132.023 33.0137Q130.988 32.1348 129.953 31.2949L128.566 33.0332Q129.68 33.7949 130.93 34.6738L128.234 34.6738L128.234 37.0957L130.656 37.0957L130.656 43.0137Q130.656 43.6104 130.358 43.8926Q130.091 44.1465 129.582 44.1465Q128.996 44.1465 128.371 44.1074Q128.664 45.4355 128.898 46.627Q130.383 46.627 131.066 46.5684Q132.082 46.5029 132.613 45.9619Q133.195 45.3691 133.195 44.2051L133.195 37.0957L134.523 37.0957L134.133 41.1777L135.891 41.1777ZM94.0156 34.1074Q96.3984 32.2324 98 30.2012Q99.6406 32.3105 101.984 34.1074L94.0156 34.1074ZM111.994 34.6152L113.332 33.873Q112.766 32.9941 111.623 31.6855L115.764 31.6855Q115.119 33.1406 114.152 34.6152L111.994 34.6152ZM150.305 35.4355L150.305 42.623L152.961 42.623L152.961 37.8574L162.18 37.8574L162.18 42.1543L164.836 42.1543L164.836 35.4355L150.305 35.4355ZM143.332 35.8652L140.871 35.8652L140.871 36.4316Q140.891 39.7324 140.129 41.2559Q139.25 43.0137 135.773 44.5566Q136.574 45.5918 137.395 46.8418Q140.656 45.1426 141.906 43.4043Q144.172 45.1426 145.91 46.8223L147.746 44.9473Q145.52 43.1309 142.863 41.2754Q143.332 39.4785 143.332 36.4316L143.332 35.8652ZM109.25 38.2871L109.25 46.1973L111.711 46.1973L111.711 45.084L115.988 45.084L115.988 46.0801L118.449 46.0801L118.449 38.2871L109.25 38.2871ZM159.289 38.6387L156.535 38.6387Q156.145 41.7441 154.602 42.623Q153.234 43.6973 148.371 44.2051Q148.859 45.084 149.66 46.6855Q155.285 46.1973 157.336 43.4922Q157.336 44.7373 157.956 45.4092Q158.684 46.1973 160.266 46.1973L164.289 46.1973Q165.393 46.1973 166.086 45.8457Q166.419 45.6768 166.657 45.4199Q166.915 45.1421 167.062 44.7617Q167.346 44.0293 167.727 41.3535Q166.242 40.7676 165.285 40.3379Q165.002 42.6133 164.899 42.9746Q164.878 43.0493 164.844 43.1172Q164.713 43.3794 164.392 43.5459Q163.986 43.7559 163.293 43.7559L161.066 43.7559Q160.471 43.7559 160.173 43.458Q159.875 43.1602 159.875 42.5645L159.875 40.4746L158.801 40.4746Q159.074 39.625 159.289 38.6387ZM111.711 40.4746L115.988 40.4746L115.988 42.8965L111.711 42.8965L111.711 40.4746Z" fill="#FFFFFFFF"/>
	</g>
	<defs>
		<clipPath id="clip8_3015">
			<rect id="Left Icon" width="32.000000" height="24.000000" transform="translate(56.000000 24.000000)" fill="white"/>
		</clipPath>
		<clipPath id="clip8_3021">
			<rect id="Right Icon" width="32.000000" height="24.000000" transform="translate(147.000000 24.000000)" fill="white"/>
		</clipPath>
		<clipPath id="clip8_3022">
			<rect id="Base Button" rx="16.000000" width="224.000000" height="72.000000" fill="white"/>
		</clipPath>
		<linearGradient id="paint_linear_8_3022_0" x1="112.198868" y1="-15.076904" x2="48.539734" y2="85.333351" gradientUnits="userSpaceOnUse">
			<stop stop-color="#FDAE8F"/>
			<stop offset="1.000000" stop-color="#FD1C68"/>
		</linearGradient>
	</defs>
</svg>
