<svg width="24.000000" height="24.000000" viewBox="0 0 24 24" fill="none" xmlns="http://www.w3.org/2000/svg" xmlns:xlink="http://www.w3.org/1999/xlink">
	<desc>
			Created with Pixso.
	</desc>
	<circle id="Ethereum (ETH)" cx="12.000000" cy="12.000000" r="11.500000" stroke="#FFFFFF"/>
	<path id="Ethereum (ETH)" d="M11.9672 4.7998L11.8717 5.12402L11.8717 14.5322L11.9672 14.6274L16.3344 12.0464L11.9672 4.7998Z" fill-rule="evenodd" fill="#FFFFFF"/>
	<path id="Ethereum (ETH)" d="M11.9672 4.7998L7.59985 12.0464L11.9672 14.6274L11.9672 10.061L11.9672 4.7998Z" fill-rule="evenodd" fill="#FFFFFF"/>
	<path id="Ethereum (ETH)" d="M11.9672 15.4546L11.9133 15.52L11.9133 18.8716L11.9672 19.0288L16.3369 12.8745L11.9672 15.4546Z" fill-rule="evenodd" fill="#FFFFFF"/>
	<path id="Ethereum (ETH)" d="M11.9672 19.0288L11.9672 15.4546L7.59985 12.8745L11.9672 19.0288Z" fill-rule="evenodd" fill="#FFFFFF"/>
	<path id="Ethereum (ETH)" d="M11.9672 14.6279L16.3344 12.0464L11.9672 10.0615L11.9672 14.6279Z" fill-rule="evenodd" fill="#FFFFFF"/>
	<path id="Ethereum (ETH)" d="M7.59985 12.0464L11.9672 14.6279L11.9672 10.0615L7.59985 12.0464Z" fill-rule="evenodd" fill="#FFFFFF"/>
	<defs/>
</svg>
