<svg width="22.350952" height="17.160156" viewBox="0 0 22.351 17.1602" fill="none" xmlns="http://www.w3.org/2000/svg" xmlns:xlink="http://www.w3.org/1999/xlink">
	<desc>
			Created with Pixso.
	</desc>
	<path id="Vector" d="M3.5332 15.855C3.59338 15.9365 3.66956 16.0054 3.75684 16.0566C3.84424 16.1079 3.94104 16.1411 4.0415 16.1538C4.14197 16.167 4.24414 16.1592 4.34155 16.1318C8.8125 14.8975 13.5342 14.897 18.0052 16.1304C18.1028 16.1582 18.2048 16.1655 18.3053 16.1523C18.4058 16.1396 18.5026 16.1064 18.5898 16.0552C18.6771 16.0039 18.7532 15.9355 18.8134 15.854C18.8735 15.7725 18.9167 15.6797 18.9401 15.5811L21.3297 5.42627C21.3617 5.29053 21.3551 5.14844 21.3105 5.01611C21.2661 4.88379 21.1857 4.76611 21.0781 4.67725C20.9706 4.58789 20.8402 4.53076 20.7019 4.51172C20.5636 4.49268 20.4226 4.5127 20.295 4.56934L15.5527 6.67676C15.3816 6.75293 15.188 6.76221 15.0103 6.70312C14.8326 6.64355 14.6836 6.51953 14.5925 6.35596L11.8314 1.38574C11.7665 1.26904 11.6714 1.17139 11.5562 1.10352C11.4408 1.03564 11.3096 1 11.1758 1C11.042 1 10.9106 1.03564 10.7954 1.10352C10.6802 1.17139 10.5851 1.26904 10.5201 1.38574L7.75903 6.35596C7.66797 6.51953 7.51892 6.64355 7.34131 6.70312C7.16357 6.76221 6.96997 6.75293 6.79883 6.67676L2.05579 4.56885C1.92822 4.51221 1.78735 4.49219 1.64905 4.51123C1.51074 4.53027 1.38037 4.58789 1.27283 4.67676C1.16528 4.76562 1.08484 4.8833 1.04028 5.01562C0.99585 5.14795 0.989136 5.29004 1.02112 5.42578L3.40662 15.582C3.42993 15.6807 3.47302 15.7734 3.5332 15.855Z" stroke="#FFFFFF" stroke-width="2.000000" stroke-linejoin="round"/>
	<defs/>
</svg>
